<?xml version="1.0" encoding="UTF-8" standalone="no"?>
<svg width="218px" height="92px" viewBox="0 0 218 92" version="1.1" xmlns="http://www.w3.org/2000/svg" xmlns:xlink="http://www.w3.org/1999/xlink">
    <!-- Generator: Sketch 3.6.1 (26313) - http://www.bohemiancoding.com/sketch -->
    <title>Group 15</title>
    <desc>Created with Sketch.</desc>
    <defs></defs>
    <g id="Page-1" stroke="none" stroke-width="1" fill="none" fill-rule="evenodd">
        <g id="Wireframe" transform="translate(-109.000000, 0.000000)">
            <g id="Group-15" transform="translate(109.000000, -1.000000)">
                <path d="M101.132812,43 L101.132812,33.1357422 L99.9023438,33.1357422 L99.9023438,37.4013672 L94.4882812,37.4013672 L94.4882812,33.1357422 L93.2578125,33.1357422 L93.2578125,43 L94.4882812,43 L94.4882812,38.5087891 L99.9023438,38.5087891 L99.9023438,43 L101.132812,43 Z M110.209375,41.8925781 L105.328516,41.8925781 L105.328516,38.5019531 L109.956445,38.5019531 L109.956445,37.4082031 L105.328516,37.4082031 L105.328516,34.2431641 L110.209375,34.2431641 L110.209375,33.1357422 L104.098047,33.1357422 L104.098047,43 L110.209375,43 L110.209375,41.8925781 Z M119.299609,43 L120.591602,43 L116.954883,33.1357422 L115.738086,33.1357422 L112.101367,43 L113.393359,43 L114.38457,40.1767578 L118.308398,40.1767578 L119.299609,43 Z M116.291797,34.7285156 L116.401172,34.7285156 L117.946094,39.1308594 L114.746875,39.1308594 L116.291797,34.7285156 Z M128.758984,41.8925781 L124.001172,41.8925781 L124.001172,33.1357422 L122.770703,33.1357422 L122.770703,43 L128.758984,43 L128.758984,41.8925781 Z M133.665625,43 L133.665625,34.2431641 L136.844336,34.2431641 L136.844336,33.1357422 L129.256445,33.1357422 L129.256445,34.2431641 L132.435156,34.2431641 L132.435156,43 L133.665625,43 Z M147.069336,43 L147.069336,33.1357422 L145.838867,33.1357422 L145.838867,37.4013672 L140.424805,37.4013672 L140.424805,33.1357422 L139.194336,33.1357422 L139.194336,43 L140.424805,43 L140.424805,38.5087891 L145.838867,38.5087891 L145.838867,43 L147.069336,43 Z M153.963672,40.4228516 C154.093555,42.125 155.535938,43.2324219 157.627735,43.2324219 C159.883594,43.2324219 161.312305,42.0771484 161.312305,40.265625 C161.312305,38.8164062 160.491992,38.0234375 158.448047,37.5107422 L157.41582,37.2373047 C156.055469,36.8886719 155.51543,36.4443359 155.51543,35.671875 C155.51543,34.6738281 156.383594,34.0175781 157.696094,34.0175781 C158.926563,34.0175781 159.760547,34.6191406 159.931445,35.6308594 L161.16875,35.6308594 C161.066211,34.0380859 159.644336,32.9033203 157.73711,32.9033203 C155.652149,32.9033203 154.250781,34.0380859 154.250781,35.7128906 C154.250781,37.1142578 155.023242,37.9208984 156.807422,38.3720703 L158.07207,38.7001953 C159.432422,39.0419922 160.047656,39.5751953 160.047656,40.4160156 C160.047656,41.3935547 159.070117,42.1113281 157.743945,42.1113281 C156.342578,42.1113281 155.358203,41.4550781 155.207813,40.4228516 L153.963672,40.4228516 Z M170.217969,43 L171.509961,43 L167.873242,33.1357422 L166.656446,33.1357422 L163.019727,43 L164.311719,43 L165.30293,40.1767578 L169.226758,40.1767578 L170.217969,43 Z M167.210156,34.7285156 L167.319531,34.7285156 L168.864453,39.1308594 L165.665235,39.1308594 L167.210156,34.7285156 Z M174.8375,43 L174.8375,35.4667969 L174.919531,35.4667969 L178.029883,42.9316406 L179.068946,42.9316406 L182.179297,35.4667969 L182.261328,35.4667969 L182.261328,43 L183.409766,43 L183.409766,33.1357422 L181.981055,33.1357422 L178.604102,41.2978516 L178.494727,41.2978516 L175.117774,33.1357422 L173.689063,33.1357422 L173.689063,43 L174.8375,43 Z M187.639649,33.1357422 L186.40918,33.1357422 L186.40918,39.609375 C186.40918,41.7148438 187.878906,43.2324219 190.326172,43.2324219 C192.773438,43.2324219 194.243164,41.7148438 194.243164,39.609375 L194.243164,33.1357422 L193.012696,33.1357422 L193.012696,39.5273438 C193.012696,41.0175781 192.035156,42.0976562 190.326172,42.0976562 C188.617188,42.0976562 187.639649,41.0175781 187.639649,39.5273438 L187.639649,33.1357422 Z M198.473047,34.2294922 L200.845117,34.2294922 C202.116602,34.2294922 202.882227,34.9335938 202.882227,36.1162109 C202.882227,37.3261719 202.164453,38.0029297 200.899805,38.0029297 L198.473047,38.0029297 L198.473047,34.2294922 Z M198.473047,39.0966797 L200.899805,39.0966797 L203.01211,43 L204.454492,43 L202.171289,38.9052734 C203.408594,38.515625 204.153711,37.4492188 204.153711,36.0751953 C204.153711,34.2978516 202.909571,33.1357422 201.00918,33.1357422 L197.242578,33.1357422 L197.242578,43 L198.473047,43 L198.473047,39.0966797 Z M213.250782,43 L214.542774,43 L210.906055,33.1357422 L209.689258,33.1357422 L206.052539,43 L207.344532,43 L208.335742,40.1767578 L212.259571,40.1767578 L213.250782,43 Z M210.242969,34.7285156 L210.352344,34.7285156 L211.897266,39.1308594 L208.698047,39.1308594 L210.242969,34.7285156 Z M217.952344,43 L217.952344,33.1357422 L216.721875,33.1357422 L216.721875,43 L217.952344,43 Z" id="HEALTH-SAMURAI" fill="#A43732"></path>
                <path d="M0,0 L4.4408921e-15,74.3525412 L37.9042969,92.9257813 L74.953125,74.3525412 L74.953125,0.829815891 L0,0 Z" id="Path-112" fill="#A43732"></path>
                <path d="M50.2899307,50.7388822 C53.5410928,48.0097526 55.3261798,44.5638819 55.3728904,40.2634353 C55.4004921,37.6270792 54.5087448,34.6668112 54.2279505,33.9612029 C51.4253161,35.9211081 51.5293533,35.5616773 48.1115195,36.9045066 C46.9591484,37.3577711 45.7945689,37.7839988 44.6485674,38.2526372 C41.3453868,39.6050089 39.0199434,41.8935972 38.1669446,45.4147469 C37.586778,47.8178441 37.7619427,55.3404448 37.7619427,56.9144125 C38.6303347,56.6572976 39.0109197,56.4277496 39.6542517,56.2151659 C43.8751889,54.8182629 46.8322867,53.6403053 50.2899307,50.7388822 Z M18.2714252,44.5294232 C18.1026302,43.9531676 17.83776,43.7495962 17.27511,43.7305113 C15.9587211,43.6843897 12.9342115,43.5025537 12,43.3387423 C12.490461,45.6252101 12.2186904,44.4483127 12.7760325,46.5693786 C14.0319099,51.3405842 17.277764,54.3565162 22.0199487,56.1913098 C24.3825483,57.1068512 33.1094634,58.1088043 33.7830511,58.0748758 C31.314822,56.8343623 28.6788594,55.6850319 26.2207155,54.2335252 C22.4196426,51.9905284 19.5411036,48.8802325 18.2714252,44.5294232 Z M56.7450135,43.800489 C56.1818326,43.820104 55.9169624,44.0231453 55.7486982,44.5994009 C54.4784891,48.9507403 51.6010116,52.059976 47.7988771,54.304033 C45.341264,55.7550096 42.0752395,56.7474203 39.6075411,57.9879338 C40.2811288,58.0218624 49.6370443,57.1762987 51.9996439,56.2618176 C56.7418286,54.427024 59.9876827,51.4100317 61.2435601,46.6393563 C61.8009022,44.5182904 61.5296624,45.6946576 62.0195926,43.4092502 C61.0859119,43.5720013 58.0614023,43.7548975 56.7450135,43.800489 Z M29.6836675,38.3470011 C28.5376661,37.8778325 27.3730866,37.4516048 26.2207155,36.9978102 C22.8034124,35.6560411 22.9069188,36.0144117 20.1048152,34.0550366 C19.8234902,34.7601148 18.9322737,37.7203827 18.9593446,40.3567389 C19.0060552,44.6566553 20.791673,48.1035863 24.042835,50.8327159 C27.4999483,53.734139 30.457046,54.9115665 34.6785141,56.3084694 C35.321846,56.5215833 35.7019003,56.7506011 36.5702923,57.0082462 C36.5702923,55.4342785 36.7454569,47.9111477 36.1658212,45.5085806 C35.3122916,41.9869008 32.9868482,39.6993728 29.6836675,38.3470011 Z M43.4713562,36.9492192 C42.6820536,33.4810829 40.7817826,28.3080358 37.1696752,25.2369699 C37.0364439,25.0954241 36.9552312,25.0174944 36.9552312,25.0174944 C36.9552312,25.0174944 36.9408995,25.0296875 36.9350607,25.035519 C36.9212599,25.0243862 36.9079898,25.0111328 36.894189,25 C35.3495553,26.6704521 31.4773549,31.9590684 30.6604507,36.9142304 C32.0617679,37.8472661 33.275712,38.4813064 34.4880637,39.8061111 C36.3246385,41.8131982 36.9398379,44.2173557 37.06033,44.6822832 C37.2551343,44.3387564 37.8310544,41.7071714 39.5827009,39.8882819 C40.7706357,38.6551903 41.9299072,37.9289068 43.4713562,36.9492192 Z" id="Fill-5" fill="#FFFFFF"></path>
            </g>
        </g>
    </g>
</svg>