<!-- Continious Delivery 1 path-->
<svg xmlns="http://www.w3.org/2000/svg" viewBox="0 0 144 143.8" enable-background="new 0 0 144 143.8">
<path d="
M35.8,84.6c0.6,0,1.2,0.1,1.7,0.4c3,1.3,6.2,2.1,9.5,2.5c1,0.1,1.9,0.6,2.6,1.3c0.3,0.3,0.5,0.6,0.8,1l5.3,9.5L71.3,95l-0.2-10.9c0-1.4,0.6-2.8,1.8-3.7c1.3-1,2.6-2.1,3.7-3.2c1.1-1.1,2.2-2.4,3.2-3.7c0.9-1.1,2.2-1.8,3.6-1.8l11,0.2l4.2-15.6L89.1,51c-0.4-0.2-0.7-0.5-1-0.8c-0.7-0.7-1.2-1.6-1.3-2.6c-0.4-3.3-1.2-6.4-2.5-9.5c-0.6-1.3-0.4-2.8,0.3-4.1l5.6-9.3L78.8,13.3L69.4,19c-1.2,0.7-2.8,0.8-4.1,0.3c-3-1.3-6.2-2.1-9.5-2.5c-1-0.1-1.9-0.6-2.6-1.3c-0.3-0.3-0.5-0.6-0.8-1l-5.3-9.5L31.6,9.1L31.8,20c0,1.4-0.6,2.8-1.8,3.7c-1.3,1-2.6,2.1-3.7,3.2c-1.1,1.1-2.2,2.4-3.2,3.7c-0.9,1.1-2.2,1.8-3.6,1.8l-11-0.2L4.3,47.9l9.5,5.3c0.4,0.2,0.7,0.5,1,0.8c0.7,0.7,1.2,1.6,1.3,2.6c0.4,3.3,1.2,6.4,2.5,9.5c0.6,1.3,0.4,2.8-0.3,4.1l-5.6,9.3l11.4,11.4l9.3-5.6C34.2,84.8,35,84.6,35.8,84.6z
M51.8,32.8c-5.2,0-10.2,2-13.9,5.7c-7.6,7.6-7.6,20.1,0,27.7C41.6,70,46.6,72,51.8,72c5.2,0,10.2-2,13.9-5.7c7.6-7.6,7.6-20.1,0-27.7C62,34.9,57,32.8,51.8,32.8z
M92.9,136.9l11.5,2.4l3.5-7.2c0.5-1,1.4-1.7,2.5-1.9c1.2-0.2,2.4-0.5,3.5-0.9c1.1-0.4,2.2-0.8,3.4-1.4
               c1-0.5,2.2-0.5,3.1,0.1l7,3.7l7.9-8.7l-4.5-6.6c-0.2-0.3-0.3-0.6-0.4-0.9c-0.2-0.7-0.2-1.5,0-2.3c0.8-2.3,1.3-4.6,1.5-7c0.1-1.1,0.7-2.1,1.6-2.7l6.8-4.2l-3.6-11.2l-7.9,0.6c-1.1,0.1-2.2-0.4-2.9-1.2c-1.6-1.8-3.4-3.5-5.4-4.8c-0.6-0.4-1.1-1.1-1.4-1.8c-0.1-0.3-0.2-0.6-0.2-0.9l-0.3-7.9l-11.5-2.4l-3.5,7.2c-0.5,1-1.4,1.7-2.5,1.9c-1.2,0.2-2.4,0.5-3.5,0.9c-1.1,0.4-2.2,0.8-3.4,1.4c-1,0.5-2.2,0.5-3.1-0.1l-7-3.7L76.3,86l4.5,6.6c0.2,0.3,0.3,0.6,0.4,0.9c0.2,0.7,0.2,1.5,0,2.3c-0.8,2.3-1.3,4.6-1.5,7c-0.1,1.1-0.7,2.1-1.6,2.7l-6.8,4.2l3.6,11.2l7.9-0.6c1.1-0.1,2.2,0.4,2.9,1.2c1.6,1.8,3.4,3.5,5.4,4.8c0.6,0.4,1.1,1.1,1.4,1.8c0.1,0.3,0.2,0.6,0.2,0.9L92.9,136.9z
M106,90.5c-1.5,0-3,0.2-4.5,0.7c-7.5,2.5-11.7,10.6-9.2,18.1c1.9,5.9,7.4,9.9,13.7,9.9c1.5,0,3-0.2,4.5-0.7c7.5-2.5,11.7-10.6,9.2-18.1C117.7,94.5,112.2,90.5,106,90.5z
M70.5,33.7c-10.2-10.2-26.8-10.2-37,0s-10.2,26.8,0,37s26.8,10.2,37,0S80.7,43.9,70.5,33.7z
M119.4,118.1c-7.5,7.5-19.6,7.5-27.1,0c-7.5-7.5-7.5-19.6,0-27.1s19.6-7.5,27.1,0S126.8,110.6,119.4,118.1z"/>
</svg>
