<!-- Custom Development -->
<svg xmlns="http://www.w3.org/2000/svg" viewBox="0 0 144 143.8" enable-background="new 0 0 144 143.8">
<path d="M51.5,117.4c-1.3,0-2.4-1.1-2.4-2.4v-9.9c0,0-1.1-4.5,5.9-7.5c6.5-2.5,21.1-8.2,21.1-8.2c9.6-2.8,0.6-11.9,0.2-21.1c-4.9-4.3-5.4-13.2-3.8-16.2c0,0,0.1-3.3-0.8-9.1c-0.9-5.7,2.1-20.5,18.7-20.5c9.4,0,20.1,2.8,21.2,16.9c-0.3,5.7-0.8,12-0.8,12c2.4,4.1,0,14.4-3.1,16.4c-1.1,5.2-2,7.5-3.2,11.3c-1.4,4.4-1.2,8.8,2.4,10.3c6.1,2.5,12.6,4.5,21,7.2c6.5,2.1,6.2,6.5,6.3,7.7V115c0,1.3-1.1,2.4-2.4,2.4C119.3,117.4,63.8,117.4,51.5,117.4z M49,108.2c-14.5,0-30.4,0-36.4,0c-1.4,0-2.5-1.1-2.5-2.5v-8c0,0-0.9-3.6,4.7-5.9c0,0,11-3.9,16.7-5.7c7.6-2.2,0.5-9.4,0.1-16.7c-3.9-3.4-4.3-10.4-3-12.8c0,0,0.1-2.7-0.6-7.2c-0.7-4.6,1.7-16.2,14.8-16.2c7.4,0,15.9,2.2,16.8,13.4C59.3,51,58.9,56,58.9,56c1.9,3.3,0,11.4-2.4,13c-0.8,4.1-1.6,5.9-2.5,9c-1.1,3.5-1,7,1.9,8.2c4.3,1.8,9,3.6,14.7,5.4"/>
</svg>
