<?xml version="1.0" encoding="utf-8"?>
<!-- Generator: Adobe Illustrator 18.0.0, SVG Export Plug-In . SVG Version: 6.00 Build 0)  -->
<!DOCTYPE svg PUBLIC "-//W3C//DTD SVG 1.1//EN" "http://www.w3.org/Graphics/SVG/1.1/DTD/svg11.dtd">
<svg version="1.1" id="Layer_1" xmlns="http://www.w3.org/2000/svg" xmlns:xlink="http://www.w3.org/1999/xlink" x="0px" y="0px"
	 viewBox="0 0 63 67" enable-background="new 0 0 63 67" xml:space="preserve">
<g id="White_Base_11_">
	<g>
		<path fill="#C0BEBE" d="M38.7,24.4c-0.1-0.1-0.3-0.2-0.4-0.3c-0.3-0.3-0.4-0.6-0.5-1c-0.2-1.4-0.5-2.8-1.1-4
			c-0.2-0.5-0.2-1.1,0.1-1.5l2.5-4.1l-5-5l-4.1,2.5c-0.5,0.3-1,0.3-1.5,0.1c-1.3-0.5-2.6-0.9-4-1.1c-0.4,0-0.7-0.2-1-0.5
			c-0.1-0.1-0.2-0.2-0.3-0.4L21,4.9l-6.9,1.9l0.1,4.8c0,0.5-0.2,1.1-0.7,1.4c-0.6,0.4-1.1,0.9-1.6,1.4s-0.9,1-1.4,1.6
			c-0.3,0.4-0.8,0.7-1.4,0.7l-4.8-0.1l-1.9,6.9l4.2,2.3C6.9,25.8,7,25.9,7.1,26c0.3,0.3,0.4,0.6,0.5,1c0.2,1.4,0.5,2.8,1.1,4
			c0.2,0.5,0.2,1.1-0.1,1.5l-2.5,4.1l5,5l4.1-2.5c0.5-0.3,1-0.3,1.5-0.1c1.3,0.5,2.6,0.9,4,1.1c0.4,0,0.7,0.2,1,0.5
			c0.1,0.1,0.2,0.2,0.3,0.4l2.3,4.2l6.9-1.9l-0.1-4.8c0-0.5,0.2-1.1,0.7-1.4c0.6-0.4,1.1-0.9,1.6-1.4c0.5-0.5,0.9-1,1.4-1.6
			c0.3-0.4,0.8-0.7,1.4-0.7l4.8,0.1l1.9-6.9L38.7,24.4z M28.8,31.2c-3.3,3.3-8.7,3.3-12,0c-3.3-3.3-3.3-8.7,0-12
			c3.3-3.3,8.7-3.3,12,0C32.1,22.5,32.1,27.9,28.8,31.2z"/>
	</g>
</g>
<g id="White_Base_9_">
	<g>
		<path fill="#C0BEBE" d="M56.2,51.8c-0.1-0.3-0.1-0.5,0-0.8c0.4-1,0.6-2,0.6-3c0-0.4,0.2-0.8,0.6-1l3-1.9l-1.6-5l-3.5,0.2
			c-0.4,0-0.8-0.1-1-0.4c-0.7-0.8-1.4-1.5-2.3-2.1c-0.2-0.2-0.4-0.4-0.5-0.6c0-0.1-0.1-0.2-0.1-0.3l-0.1-3.5l-5.2-1.1l-1.5,3.2
			c-0.2,0.4-0.5,0.6-0.9,0.7c-0.5,0.1-1,0.2-1.5,0.4c-0.5,0.2-1,0.4-1.4,0.6c-0.4,0.2-0.8,0.2-1.1,0l-3.1-1.6l-3.5,3.9l2,2.9
			c0.1,0.1,0.1,0.2,0.2,0.3c0.1,0.3,0.1,0.5,0,0.8c-0.4,1-0.6,2-0.6,3c0,0.4-0.2,0.8-0.6,1l-3,1.9l1.6,5L36,54c0.4,0,0.8,0.1,1,0.4
			c0.7,0.8,1.4,1.5,2.3,2.1c0.2,0.2,0.4,0.4,0.5,0.6c0,0.1,0.1,0.2,0.1,0.3L40,61l5.2,1.1l1.5-3.2c0.2-0.4,0.5-0.6,0.9-0.7
			c0.5-0.1,1-0.2,1.5-0.4c0.5-0.2,1-0.4,1.4-0.6c0.4-0.2,0.8-0.2,1.1,0l3.1,1.6l3.5-3.9l-2-2.9C56.3,52,56.2,51.9,56.2,51.8z
			 M47.6,53.3c-3.3,1.1-6.8-0.7-7.9-4s0.7-6.8,4-7.9s6.8,0.7,7.9,4S50.9,52.2,47.6,53.3z"/>
	</g>
</g>
<path fill="#FFFFFF" d="M31.4,16.6c-4.7-4.7-12.3-4.7-17,0c-4.7,4.7-4.7,12.3,0,17c4.7,4.7,12.3,4.7,17,0
	C36.1,28.9,36.1,21.3,31.4,16.6z M30.7,32.9c-4.3,4.3-11.3,4.3-15.6,0s-4.3-11.3,0-15.6s11.3-4.3,15.6,0S35,28.6,30.7,32.9z"/>
<path fill="#FFFFFF" d="M52,40.8c-3.5-3.5-9.3-3.5-12.8,0c-3.5,3.5-3.5,9.3,0,12.8c3.5,3.5,9.3,3.5,12.8,0
	C55.5,50,55.5,44.3,52,40.8z M51.3,52.9c-3.1,3.1-8.3,3.1-11.4,0c-3.1-3.1-3.1-8.3,0-11.4c3.1-3.1,8.3-3.1,11.4,0
	S54.5,49.7,51.3,52.9z"/>
</svg>
