<!-- FHIR 1 path -->
<svg xmlns="http://www.w3.org/2000/svg" viewBox="0 0 144 143.8" enable-background="new 0 0 144 143.8">
<path d="M83.8,25.2 M83.8,25.2c-3.6-12.6-9.3-21.9-9.3-21.9
               c3.1,26.3-5.4,32.5-19.1,48.3C41.9,67.2,36.6,83.6,35.7,92.5c-1.5,29.2,20.1,40.2,28.4,46c-6.2-4.8-10.6-22.6-3.1-40
               c7.7-17.2,22.8-27.4,25.3-50c0.7-7.3-0.3-14.6-1.9-21.2 M56.2,128.5C34.3,96,59.5,69.2,72.6,51c2.4-3.4,4.4-6.6,6.1-9.8
               c0,13.4-1.5,23.2-15.2,40.8C52.8,96.2,50.1,114.7,56.2,128.5z M44,127.1c0,0-20.1-14.1-20.9-35.7c-0.8-9.5,4.4-23.8,16.8-34.8
               C54,44,57.9,41.5,60.8,38.2C52.7,47.9,34.9,66.8,32,82.9C29.1,99.3,34.9,116.1,44,127.1L44,127.1z M97.3,113.4
               c14.9-25.9,1.9-59.5-6.2-70.7c0.2,8.5-0.8,15.8-6,27.8c-5.2,12-16.2,25.1-19.3,31.1c-9.3,19.9,3.3,38.3,3.3,38.3
               c34.6-1.5,41-28.4,42.3-43.1C108.7,103.9,102.1,110.5,97.3,113.4z M70.3,137c0,0-8.1-14.3,1-28.6C78.6,97,86.3,94.5,90.7,81.9
               c0.8,13.1,0.2,30.5-11,45c4.8-0.8,7.7-2.3,11.4-5C88.6,127.7,83.6,134.8,70.3,137z M85.3,5.8c0,0,6.4,18.4-12.6,45.2
               c-13.9,19.3-41.2,48.1-12.2,83.1c-11.8-12.2-23.2-33.4-10.6-58.5C61.6,52.7,89.6,38,85.3,5.8L85.3,5.8z"/>
</svg>
