<!-- form stamp 1 paths  -->
<svg xmlns="http://www.w3.org/2000/svg" viewBox="0 0 144 143.8" enable-background="new 0 0 144 143.8">
<path  d="M71.9,4.9C35.1,4.9,5.2,34.8,5.2,71.5
               s29.9,66.7,66.7,66.7c36.8,0,66.7-29.9,66.7-66.7S108.7,4.9,71.9,4.9z M71.9,132.9c-33.9,0-61.4-27.5-61.4-61.4
               c0-33.9,27.5-61.4,61.4-61.4c33.9,0,61.4,27.5,61.4,61.4C133.3,105.4,105.8,132.9,71.9,132.9z M81.7,73.3l-17,5l2.5-22.7L81.7,73.3z
                M58.5,26.6c-0.2,0-0.4,0-0.6,0.2c-0.6,0.4-37.7,27.2-40.3,29.1c-0.2,0.2-0.3,0.3-0.2,0.5c0,0.1,0.1,0.2,0.1,0.3
               c0.6,1.3,23.8,55.3,24.4,56.7c0.1,0.2,0.2,0.4,0.5,0.4c0.8,0.2,41.2,9,43.9,9.6c0.3,0.1,0.5,0,0.7-0.2c2.9-2.9,29.1-29.5,31.6-32
               c0.4-0.4,0.4-0.8,0.3-1.2c-0.2-1.1-9.9-58.7-10.2-60.7c-0.1-0.4-0.2-0.4-0.5-0.4C103.5,28.5,65.6,26.9,58.5,26.6 M98,93.4
               c-3.2-4-6.3-8.1-9.5-12.1l-25.1,7.4c-0.5,5.1-1.5,16-1.5,16c-3.3,1-10.6,3.2-10.8,3.2c0,0,10-73.2,10-73.2c0.1,0.1,48,56.1,48,56.1
               L98,93.4z"/></svg>


