<svg version="1.1" xmlns="http://www.w3.org/2000/svg" xmlns:xlink="http://www.w3.org/1999/xlink" x="0px" y="0px"
     viewBox="0 0 1332 281" enable-background="new 0 0 1332 281" xml:space="preserve">
  <g id="line-1">
    <g id="browser">
      <polyline id="XMLID_841_" points="47.4,241.5 42.7,247.1 47.4,252.9 "/>
      <line id="XMLID_676_" x1="54.8" y1="237" x2="49.9" y2="258.7"/>
      <path d="M66.9,268.7H21.6c-2.6,0-4.7-2.1-4.7-4.7v-37.4
               c0-2.6,2.1-4.7,4.7-4.7h45.3c2.6,0,4.7,2.1,4.7,4.7V264C71.6,266.6,69.5,268.7,66.9,268.7z"/>
      <polyline id="XMLID_673_" points="58,252.9 62.7,247.1 58,241.5 "/>
      <line x1="20.4" y1="227.9" x2="68.7" y2="227.9"/>
      <line x1="20.4" y1="232.5" x2="31.6" y2="232.5"/>
      <line x1="20.4" y1="236.7" x2="31.6" y2="236.7"/>
      <line x1="20.4" y1="240.6" x2="31.6" y2="240.6"/>
      <line x1="35.2" y1="229.7" x2="35.2" y2="266.2"/>
      <line x1="20.4" y1="225.1" x2="21.7" y2="225.1"/>
      <line x1="22.7" y1="225.1" x2="24" y2="225.1"/>
      <line x1="25" y1="225.1" x2="26.3" y2="225.1"/>
    </g>
    <g id="notebook">
      <path d="M323.9,265c0.9,1.4-0.1,3.2-1.7,3.2h-61.6c-1.6,0-2.6-1.8-1.8-3.2
               l7-11.8v-28.7c0-2.4,1.9-4.3,4.3-4.3h41.6c2.4,0,4.3,1.9,4.3,4.3v28.7L323.9,265z"/>
      <path d="M270.7,225.8c0.8-0.8,1.9-1.3,3.1-1.3h34.3"/>
      <line x1="268.2" y1="257.9" x2="313.2" y2="257.9"/>
      <line x1="266.2" y1="261.9" x2="316" y2="261.9"/>
      <line x1="270.3" y1="253.9" x2="311.2" y2="253.9"/>
      <line x1="290" y1="222.4" x2="291.8" y2="222.4"/>
    </g>
    <g id="database">
      <path d="M518.2,241.8"/>
      <path id="basic_18_" d="M562.4,258.5c0.1-0.1,0.9-0.5,1-0.6"/>
      <path id="_x32_nd_18_" d="M562.5,246.2c0.1,0,1.2-0.5,1.2-0.5"/>
      <path id="line_17_" d="M563.4,233.1c-0.1,0.1-1,0.4-1.1,0.5"/>
      <g>
        <path id="basic_17_" d="M545.9,246.2c-11.4,0-20.6-3.9-20.6-8.7v-9.1
                                c0-4.8,9.3-8.7,20.6-8.7s20.6,3.9,20.6,8.7v9.1c0,0.6-0.4,1.7-0.4,1.7c0.6,0.4,0.4,1.7,0.4,1.7v9.1c0,0.7-0.2,1.4-0.6,2l0.1,0.2
                                c0.3,0.6,0.4,1.2,0.4,1.7v8.3c0,4.8-9.3,8.7-20.6,8.7s-20.6-3.9-20.6-8.7v-5.8c0-0.6,0.7-0.9,1.2-0.4c2.8,3.4,10.5,5.9,19.5,5.9
                                c5.9,0,11.3-1.1,15.1-2.8"/>
        <path id="_x32_nd_17_" d="M545.9,258.7c-11.4,0-20.6-3.9-20.6-8.7v-5.8
                                  c0-0.6,0.7-0.9,1.2-0.4c2.8,3.4,10.5,5.9,19.5,5.9c6.1,0,11.5-1.1,15.3-2.8"/>
        <path id="line_18_" d="M561.3,234.2c-3.8,1.8-9.3,2.9-15.4,2.9
                               c-11.4,0-20.6-3.9-20.6-8.7"/>
        <path id="c_33_" d="M534.2,264.3c0.1,1-0.6,1.8-1.6,1.8c-1,0-1.9-0.9-2-1.9
                            c-0.1-1,0.6-1.8,1.6-1.8C533.2,262.4,534.1,263.3,534.2,264.3z"/>
        <path id="c_32_" d="M534.2,252c0.1,1-0.6,1.8-1.6,1.8c-1,0-1.9-0.9-2-1.9
                            c-0.1-1,0.6-1.8,1.6-1.8C533.2,250.1,534.1,251,534.2,252z"/>
        <path id="c_31_" d="M534.2,239.5c0.1,1-0.6,1.8-1.6,1.8c-1,0-1.9-0.9-2-1.9
                            c-0.1-1,0.6-1.8,1.6-1.8C533.2,237.6,534.1,238.5,534.2,239.5z"/>
      </g>
    </g>
    <g id="phone">
      <path d="M799.9,269.4H780c-2.3,0-4.2-1.9-4.2-4.2v-40.1
               c0-2.3,1.9-4.2,4.2-4.2h19.9c2.3,0,4.2,1.9,4.2,4.2v40.1C804.1,267.5,802.2,269.4,799.9,269.4z"/>
      <path d="M789.9,267.4L789.9,267.4c-1.1,0-1.9-0.9-1.9-1.9l0,0
               c0-1.1,0.9-1.9,1.9-1.9l0,0c1.1,0,1.9,0.9,1.9,1.9l0,0C791.9,266.5,791,267.4,789.9,267.4z"/>
      <path d="M781,227.8h15.5c2.5,0,4.5,2,4.5,4.5v27.2"/>
      <path d="M798.4,261.5h-14.9c-2.5,0-4.5-2-4.5-4.5v-26.5"/>
      <line x1="794.9" y1="225" x2="788.5" y2="225"/>
      <line x1="787.7" y1="225" x2="786.7" y2="225"/>
    </g>
    <g id="computer">
      <path d="M1068.1,262.9h-57.7v-36.3c0-3.4,2.8-6.2,6.2-6.2h45.3
               c3.4,0,6.2,2.8,6.2,6.2V262.9z"/>
      <line x1="1010.6" y1="256" x2="1067.9" y2="256"/>
      <path d="M1014.3,228.4c0-2,1.6-3.7,3.7-3.7h46.3"/>
      <line x1="1038.4" y1="222.7" x2="1040.1" y2="222.7"/>
      <path d="M1046.4,262.9l4.5,5.2c0.6,0.6,0.1,1.7-0.8,1.7h-21.8
               c-0.9,0-1.3-1-0.8-1.7l4.5-5.2"/>
    </g>
    <g id="cloud">
      <path id="path_45_" d="M1307,241.7c1-1.3,1.5-2.8,1.5-4.6
                             c0.1-4.2-3.2-7.6-7.3-7.6c-1.9,0-3.7,0.8-5.1,2.1c-2.2-5.3-7.3-9-13.4-8.9c-8.2,0.1-15,7.1-15.1,15.6c0,1.3,0.1,2.7,0.4,3.9
                             c-7.2,0.6-13,6.8-13.1,14.3c-0.2,7.8,5.8,13.4,13.4,13.3h37.1c7.5-0.1,13.7-6.6,13.9-14.4C1319.4,248.2,1314,242.2,1307,241.7"/>
      <path id="path_44_" d="M1315.4,252.5c-0.1-0.5-0.3-0.9-0.4-1.4"/>
      <path id="path_43_" d="M1308.5,266.4c4.1-1.8,7.1-6.1,7.2-10.9"/>
    </g>
  </g>
  <g id="line-2">
    <g id="hospital">
      <line id="XMLID_720_" x1="174.4" y1="174.5" x2="162.2" y2="182.2"/>
      <line id="XMLID_719_" x1="193.5" y1="162.8" x2="184.5" y2="168.7"/>
      <path id="XMLID_718_" d="M178.1,173.9"/>
      <path id="XMLID_717_" d="M175.5,178.1l-0.2-8.8
                               c0-1.1,0.5-2.1,1.4-2.7l5-3.1c0.7-0.5,1.6,0.1,1.6,1l0.2,8.6"/>
      <line id="XMLID_716_" x1="179.2" y1="165.2" x2="179.3" y2="170.7"/>
      <line id="XMLID_715_" x1="179.4" y1="172.5" x2="179.4" y2="175.4"/>
      <polygon id="XMLID_714_" points="178.5,136.3
                                       178.6,141.2 175.7,143.1 175.6,138.1 172.1,140.4 172.3,152.2 175.9,149.8 175.8,146.9 178.7,145.1 178.8,148 181.8,146
                                       181.6,134.2 "/>
      <path id="XMLID_713_" d="M181.8,143.4l8.6-5.4
                               c1.3-0.8,2.8,0.1,2.9,1.7l0.5,27.2l-31.4,19.5l-0.5-28.1c0-1.3,0.6-2.5,1.7-3.2l8.9-5.6"/>
      <path id="XMLID_712_" d="M170.4,160.3l-3.4,2
                               c-0.5,0.3-1.1,0-1.1-0.7l-0.1-2.8"/>
      <path id="XMLID_711_" d="M170.6,167.9l-3.4,2
                               c-0.5,0.3-1.1,0-1.1-0.7l-0.1-3.3"/>
      <path id="XMLID_709_" d="M190.5,147.2l-3.4,2
                               c-0.5,0.3-1.1,0-1.1-0.7l0-2.6"/>s
      <path id="XMLID_708_" d="M190.6,154.9l-3.4,2
                               c-0.5,0.3-1.1,0-1.1-0.7l-0.1-3.3"/>
      <path id="XMLID_706_" d="M184.2,151.2l-3.4,2
                               c-0.5,0.3-1.1,0-1.1-0.7l0-2.5"/>
      <path id="XMLID_705_" d="M177.3,155.7l-3.4,2
                               c-0.5,0.3-1.1,0-1.1-0.7l-0.1-2.8"/>
      <path id="XMLID_704_" d="M184.3,158.8l-3.4,2
                               c-0.5,0.3-1.1,0-1.1-0.7l0-2.5"/>
      <path id="XMLID_703_" d="M177.4,163.3l-3.4,2
                               c-0.5,0.3-1.1,0-1.1-0.7l-0.1-2.8"/>
    </g>
    <g id="heard">
      <line id="XMLID_728_" x1="410.6" y1="141.9" x2="410.4" y2="141.8"/>
      <path id="XMLID_727_" d="M433.4,169.1v-9.8
                               c0-3.2-1.8-6.3-4.8-7.8l-16.5-8.8"/>
      <line id="XMLID_726_" x1="407.8" y1="163.1" x2="432.6" y2="175.9"/>
      <path id="XMLID_725_" d="M424.4,146.7l-16.7-8.9
                               c-1.2-0.6-2.6,0.2-2.6,1.5v20c0,1.1,0.3,2.1,0.8,3v4.7c0,0.7,0.4,1.4,1.1,1.7l24.6,12.9c1.6,0.8,3.5,0.2,3.5-1.3v-3
                               c0.5-0.6,0.8-1.4,0.8-2.4v-16.9c0-3.2-1.8-6.3-4.8-7.8L424.4,146.7"/>
      <polyline id="XMLID_724_" points="407.8,152.3 410.5,153.8 411.7,157.8 415,149.8 416.2,162.9 418.7,157.8 420.7,158.9 422.2,163.3 426.3,155.8 429.1,168.9 430.5,163.9 432.1,164.7"/>
      <line id="XMLID_723_" x1="411.9" y1="168.3" x2="411.7" y2="168.2"/>
      <line id="XMLID_722_" x1="414.7" y1="169.9" x2="414.5" y2="169.8"/>
      <line id="XMLID_721_" x1="409.1" y1="166.9" x2="408.9" y2="166.7"/>
    </g>
    <g id="card">
      <path id="XMLID_683_" d="M666.1,139.4l5.2-3.6c1.2-0.8,2.5-0.2,2.5,1.1l0,30.8c0,1.6-0.9,3.2-2.3,4.2l-18.6,11.9c-1.8,1.2-3.9,0.3-3.9-1.8l0-28.3c0-1.5,0.8-3,2.2-4l6.6-4.6"/>
      <line id="XMLID_682_" x1="653.8" y1="163.5" x2="669.5" y2="153.3"/>
      <line id="XMLID_681_" x1="653.8" y1="169.1" x2="669.5" y2="158.8"/>
      <line id="XMLID_680_" x1="653.8" y1="175.5" x2="669.5" y2="165.1"/>
      <line id="XMLID_679_" x1="659.6" y1="152.5" x2="664.8" y2="148.9"/>
      <line id="XMLID_678_" x1="662.2" y1="147.9" x2="662.2" y2="153.7"/>
      <path id="XMLID_677_" d="M663.7,139.4
                               c0-0.1,0-0.5-0.1-0.6c-0.2-0.8-1-0.9-1.8-0.3c-0.9,0.7-1.7,2.2-1.8,3.5l-1.6,1.1c-0.5,0.3-0.8,0.9-0.8,1.4l0,1.9
                               c0,0.5,0.4,0.7,0.9,0.4l6.7-4.8c0.4-0.3,0.7-0.7,0.7-1.2l0-2c0-0.5-0.4-0.7-0.8-0.4L663.7,139.4z"/>
    </g>

    <g id="aidbox">
      <path id="XMLID_795_" d="M901.4,148.5l16.4-10.3
                               c1.2-0.7,2.5,0,2.5,1.3l0.1,22.1c0,2.4-1.3,4.7-3.3,6l-21.5,13.5c-2.5,1.5-5.4,0-5.4-2.9l0-17.3c0-3.3,1.8-6.5,4.7-8.3
                               L901.4,148.5"/>
      <line id="XMLID_794_" x1="902.1" y1="162.5" x2="911.3" y2="156.7"/>
      <line id="XMLID_747_" x1="906.6" y1="155" x2="906.6" y2="164.5"/>
      <line id="XMLID_746_" x1="914.9" y1="142.6" x2="915.2" y2="142.4"/>
      <path id="XMLID_745_" d="M892.7,170l0-8c0-3.3,1.8-6.5,4.7-8.3l16.2-10.1"/>
      <path id="XMLID_744_" d="M899.8,149.2l0-2.1c0-0.8,0.4-1.6,1.1-2l8-5.2c0.7-0.5,1.6,0,1.6,0.8l0,1.9"/>
    </g>

    <g id="car">
      <line id="XMLID_696_" x1="1149.2" y1="173.7" x2="1135.4" y2="166.1"/>
      <path id="XMLID_695_" d="M1135.4,165.6c0,1.9-1.5,2.9-3.3,2.2s-3.3-2.8-3.3-4.8c0-1.9,1.5-2.9,3.3-2.2C1133.9,161.6,1135.4,163.7,1135.4,165.6z"/>
      <path id="XMLID_694_" d="M1128.5,162.3l-1.2-0.7c-1.9-1-1.8-1.1-1.8-2.4l0-1.8c0-0.8,0.4-0.9,1.1-0.6l0.6,0.3l-0.1-15.9c0-1.1,1.4-1.8,2.6-1.3l17.6,9.7l5.7,3.2c1.9,1,1.9,2.8,2.4,4.1l4.2,11.3l0.1,6.6"/>
      <line id="XMLID_693_" x1="1148.6" y1="168.9" x2="1137" y2="162.5"/>
      <path id="XMLID_692_" d="M1157.9,174l1.9,1c1.2,0.5,1.2,0.9,1.2,1.9l0,1.4c0,1.6-0.9,1.2-1.7,0.9c-0.6-0.3-2.2-1.2-3.4-1.8"/>
      <polyline id="XMLID_691_" points="1152.9,155.2 1145.4,151 1145.5,159.5 1159.4,167.3"/>
      <path id="XMLID_690_" d="M1152.9,155.2"/>
      <path id="XMLID_689_" d="M1155.9,177c0,1.9-1.5,2.9-3.4,2.2s-3.4-2.9-3.3-4.8c0-1.9,1.5-2.9,3.4-2.2C1154.4,172.8,1155.9,175,1155.9,177z"/>
      <line id="XMLID_688_" x1="1139.3" y1="154.8" x2="1133.1" y2="151.4"/>
      <line id="XMLID_687_" x1="1136.2" y1="149.4" x2="1136.3" y2="156.9"/>
      <path id="XMLID_686_" d="M1148.5,151.9"/>
      <path id="XMLID_685_" d="M1147.9,149.6c0-2.1-0.4-2.7,1.7-1.7l0.2,0.1c1.7,0.9,1.7,1.3,1.8,2.4l0,1.3"/>
    </g>

  </g>

  <g id="line-3">

    <g id="tablets">
      <path id="XMLID_866_" d="M300.1,85.1
                               c-0.1,0-0.2,0.1-0.2,0.1"/>
      <path id="XMLID_865_" d="M298.2,85.5
                               c-3.4,1-6.5,0.7-8.7,0.2"/>
      <path id="XMLID_864_" d="M298.2,75.4
                               c-1.4,0.5-3.2,0.8-5.1,0.8c-4.4,0-7.9-1.5-7.9-3.4c0-1.8,3.6-3.4,7.9-3.4c4.4,0,7.9,1.5,7.9,3.4v4.3c0,1.8-3.6,3.4-7.9,3.4
                               c-4.4,0-7.9-1.5-7.9-3.4v-4.3"/>
      <path id="XMLID_863_" d="M286.5,79.2l-2.6,2.3
                               c-0.8,0.7-1.2,1.6-1.2,2.6V103c0,1,0.5,1.9,1.4,2.4c1.9,1.1,5.1,1.9,8.7,1.9c3.6,0,6.7-0.8,8.7-1.9c0.9-0.5,1.4-1.4,1.4-2.4V83.6
                               c0-1-0.4-1.9-1.2-2.6l-1.9-1.7"/>
      <path id="XMLID_862_" d="
                               M282.8,89c1.5,1.8,5.4,3.1,10.1,3.1c0.8,0,1.5-0.1,2.2-0.1v10.3c-0.7,0.1-1.4,0.1-2.2,0.1c-4.6,0-8.6-1.3-10.1-3"/>
    </g>

    <g id="chat">
      <path id="XMLID_852_" d="M552.9,71.9l-15.2,7.6
                               c-2.7,1.4-4.5,4.2-4.5,7.3v13.4c0,1.8,1.9,3,3.5,2.1l10-5l3.8,3.8v-5.8l1.4-0.7c2.7-1.4,4.5-4.2,4.5-7.3V74
                               C556.3,72.3,554.4,71.1,552.9,71.9z"/>
      <line id="XMLID_805_" x1="550.5" y1="79.2" x2="552.5" y2="78.2"/>
      <line id="XMLID_804_" x1="537.2" y1="86.3" x2="548" y2="80.5"/>
      <line id="XMLID_803_" x1="537.2" y1="91.4" x2="552.5" y2="83.2"/>
      <line id="XMLID_802_" x1="550.4" y1="89.5" x2="552.5" y2="88.3"/>
      <line id="XMLID_801_" x1="537.2" y1="96.5" x2="547.9" y2="90.8"/>
    </g>

    <g id="bottle">
      <path id="XMLID_861_" d="M792.6,78.9
                               c-3,0-5.4-1.1-5.4-2.4v-2.7c0-1.3,2.4-2.4,5.4-2.4c3,0,5.4,1.1,5.4,2.4v0.2v2.5c0,1.2-1.1,1.7-1.1,1.7v6.7V85l7.2,11.9l0.1,2.6
                               c0,0-0.5,4.8-11.5,4.8c-10.5,0-11.4-4.8-11.4-4.8v-2.6l7.2-12v-6.6"/>
      <path id="XMLID_860_" d="M794.9,73.4
                               c0.7,0.2,1.1,0.5,1.1,0.8c0,0.3-0.4,0.6-1.1,0.8c-0.6,0.2-1.4,0.3-2.3,0.3c-1.8,0-3.4-0.5-3.4-1.1c0-0.4,0.6-0.8,1.6-1"/>
      <path id="XMLID_859_" d="M794.4,96.9
                               c-0.6,0.1-1.1,0.1-1.6,0.1c-1.1,0-2.2-0.1-3.2-0.2"/>
      <path id="XMLID_858_" d="M796.9,96.8
                               c-0.2,0-0.4,0.1-0.6,0.1"/>
      <path id="XMLID_857_" d="M794.4,94.9
                               c-0.6,0.1-1.1,0.1-1.7,0.1c-1.1,0-2.2-0.1-3.2-0.2"/>
      <path id="XMLID_856_" d="M797,94.7
                               c-0.2,0-0.4,0.1-0.6,0.1"/>
      <path id="XMLID_855_" d="M794.4,92.8
                               c-0.6,0.1-1.1,0.1-1.7,0.1c-1.1,0-2.1-0.1-3.1-0.2"/>
      <path id="XMLID_854_" d="M797,92.7
                               c-0.2,0-0.4,0.1-0.6,0.1"/>
      <path id="XMLID_853_" d="M794.8,86.6
                               c-0.6,0.2-1.3,0.2-2.1,0.2c-2.3,0-4.3-0.7-4.3-1.6c0-0.1,0-0.2,0.1-0.3"/>
    </g>

    <g id="docs">
      <polyline id="XMLID_851_" points="1037.2,98.3 1028.9,102.4 1028.9,75.5 1047.6,66.2 1047.6,74.8"/>
      <line id="XMLID_850_" x1="1031.4" y1="90.5" x2="1037.2" y2="87.6"/>
      <line id="XMLID_849_" x1="1031.4" y1="95.6" x2="1037.1" y2="92.8"/>
      <polygon id="XMLID_848_" points="1055.9,97.7 1037.3,107 1037.3,80 1055.9,70.8"/>
      <line id="XMLID_847_" x1="1047.2" y1="86" x2="1053" y2="83"/>
      <line id="XMLID_846_" x1="1040.7" y1="89.3" x2="1047.2" y2="86"/>
      <line id="XMLID_845_" x1="1040.7" y1="94.4" x2="1053" y2="88.1"/>
      <line id="XMLID_844_" x1="1040.7" y1="99.2" x2="1053" y2="92.9"/>
      <line id="XMLID_843_" x1="1031.4" y1="85.7" x2="1037.2" y2="82.8"/>
    </g>
  </g>

  <g id="line-4">
    <g id="notebook_1">
      <path id="XMLID_783_" d="M910,21.4V7.3c0-0.7,0.7-1.2,1.4-0.8L930,15c0.8,0.4,1.3,1.1,1.3,1.9v14.4L921,35.2c-0.6,0.2-1.2,0.2-1.9-0.1l-19.3-8.9
                               c-0.4-0.2-0.4-0.7-0.1-0.9L910,21.4"/>
      <line id="XMLID_782_" x1="928.4" y1="30.1" x2="911.8" y2="22.5"/>
      <line id="XMLID_759_" x1="921.9" y1="12.7" x2="921" y2="12.2"/>
      <path id="XMLID_758_" d="
                               M911.2,10.2c0-0.1,0-0.1,0-0.2c0.1-0.3,0.5-0.5,0.9-0.4l14.1,6.5l3.4,1.6"/>
      <line id="XMLID_757_" x1="925.5" y1="31.3" x2="909" y2="23.6"/>
      <line id="XMLID_756_" x1="922.4" y1="32.4" x2="905.8" y2="24.9"/>
    </g>

    <g id="card_1">
      <path id="XMLID_799_" d="M171.2,9.4l3.1-1.5c0.7-0.3,1.5,0.2,1.5,0.9V26c0,0.9-0.5,1.8-1.3,2.2l-11,5.5c-1.1,0.5-2.3-0.3-2.3-1.4V15.9
                               c0-0.9,0.5-1.7,1.3-2.1l3.9-1.9"/>
      <line id="XMLID_798_" x1="163.9" y1="22" x2="173.3" y2="17.4"/>
      <line id="XMLID_797_" x1="163.9" y1="25.3" x2="173.3" y2="20.7"/>
      <line id="XMLID_796_" x1="163.9" y1="29" x2="173.3" y2="24.4"/>
      <line id="XMLID_732_" x1="167.4" y1="16.3" x2="170.5" y2="14.8"/>
      <line id="XMLID_731_" x1="168.9" y1="14" x2="168.9" y2="17.3"/>
      <path id="XMLID_730_" d="M169.8,9.2c0,0,0-0.3,0-0.4c-0.1-0.5-0.6-0.7-1.1-0.4c-0.6,0.3-1,1.1-1,1.8l-0.9,0.5c-0.3,0.1-0.5,0.4-0.5,0.8v1.1
                               c0,0.3,0.3,0.4,0.5,0.3l4-2c0.2-0.1,0.4-0.4,0.4-0.6V9.1c0-0.3-0.3-0.4-0.5-0.3L169.8,9.2z"/>
      <line id="XMLID_729_" x1="168.9" y1="9.6" x2="168.9" y2="9.7"/>
    </g>

    <g id="db">
      <path id="basic_16_" d="
                              M424.1,26.6C424.1,26.6,424.1,26.6,424.1,26.6"/>
      <path id="basic_15_" d="
                              M416.4,21.2c-5.1,0-9.3-1.8-9.3-3.9v-4.1c0-2.2,4.2-3.9,9.3-3.9s9.3,1.8,9.3,3.9v4.1c0,0.3-0.2,0.8-0.2,0.8
                              c0.3,0.2,0.2,0.8,0.2,0.8v4.1c0,0.3-0.1,0.6-0.3,0.9l0.1,0.1c0.1,0.3,0.2,0.5,0.2,0.8v3.7c0,2.2-4.2,3.9-9.3,3.9s-9.3-1.8-9.3-3.9
                              v-2.6c0-0.3,0.3-0.4,0.5-0.2c1.3,1.5,4.8,2.7,8.8,2.7c2.7,0,5.1-0.5,6.8-1.2"/>
      <path id="_x32_nd_16_" d="
                                M424.1,21C424.1,21,424.1,21,424.1,21"/>
      <path id="_x32_nd_15_" d="
                                M416.4,26.9c-5.1,0-9.3-1.8-9.3-3.9v-2.6c0-0.3,0.3-0.4,0.5-0.2c1.3,1.5,4.8,2.7,8.8,2.7c2.8,0,5.2-0.5,6.9-1.3"/>
      <path id="line_16_" d="M423.3,15.8c-1.7,0.8-4.2,1.3-7,1.3c-5.1,0-9.3-1.8-9.3-3.9"/>
      <path id="line_15_" d="M424.1,15.3c0,0-0.1,0-0.1,0.1"/>
      <path id="c_30_" d="M411,29.4c0.1,0.5-0.3,0.8-0.7,0.8c-0.5,0-0.9-0.4-0.9-0.9c-0.1-0.5,0.3-0.8,0.7-0.8C410.6,28.5,411,28.9,411,29.4z"/>
      <path id="c_29_" d="M411,23.8c0.1,0.5-0.3,0.8-0.7,0.8c-0.5,0-0.9-0.4-0.9-0.9c-0.1-0.5,0.3-0.8,0.7-0.8C410.6,23,411,23.4,411,23.8z"/>
      <path id="c_28_" d="M411,18.1c0.1,0.5-0.3,0.8-0.7,0.8c-0.5,0-0.9-0.4-0.9-0.9c-0.1-0.5,0.3-0.8,0.7-0.8C410.6,17.3,411,17.7,411,18.1z"/>
    </g>

    <g id="paper">
      <polygon id="XMLID_872_" points="675.7,27.8 661,35.1 661,13.9 675.7,6.5"/>
      <line id="XMLID_871_" x1="662.9" y1="17.5" x2="673.7" y2="12.1"/>
      <line id="XMLID_870_" x1="662.9" y1="20.8" x2="673.7" y2="15.4"/>
      <line id="XMLID_710_" x1="662.9" y1="24" x2="673.7" y2="18.7"/>
    </g>

    <g id="chat_1">
      <path id="XMLID_877_" d="M1173.9,7.7l-13.1,6.6c-2.4,1.2-3.9,3.6-3.9,6.3v11.6c0,1.5,1.6,2.5,3,1.8l8.6-4.3l3.3,3.3v-5l1.2-0.6c2.4-1.2,3.9-3.6,3.9-6.3
                               V9.5C1176.9,8,1175.3,7,1173.9,7.7z"/>
      <line id="XMLID_876_" x1="1171.9" y1="13.9" x2="1173.6" y2="13"/>
      <line id="XMLID_875_" x1="1160.4" y1="20" x2="1169.7" y2="15.1"/>
      <line id="XMLID_874_" x1="1160.4" y1="24.4" x2="1173.6" y2="17.4"/>
      <line id="XMLID_873_" x1="1171.7" y1="22.8" x2="1173.6" y2="21.8"/>
      <line id="XMLID_763_" x1="1160.4" y1="28.8" x2="1169.6" y2="23.9"/>
    </g>
  </g>

  <g id="lines" class="lines">
    <line x1="884.8" y1="160.1" x2="845.9" y2="135.4"/>
    <path d="M662.7,98.1"/>
    <line x1="1016.4" y1="85.5" x2="938.6" y2="36.6"/>
    <path d="M1016.4,85.5"/>
    <line x1="1256.7" y1="236.8" x2="1168.7" y2="181.5"/>
    <line x1="809" y1="92.6" x2="861.7" y2="61.1"/>
    <polyline points="913.2,178 966.3,211.1 1155.3,91.5 1107.1,61.1 1146.1,36.5"/>
    <line x1="323.2" y1="239.4" x2="416" y2="181.9"/>
    <line x1="520.6" y1="88.4" x2="432.8" y2="33.2"/>
    <line x1="259.6" y1="220.8" x2="192.3" y2="178.4"/>
    <line x1="80" y1="237.5" x2="153.9" y2="191.1"/>
    <line x1="515.8" y1="231.8" x2="443.5" y2="187.1"/>
    <polyline points="676.8,39.1 716.5,64.1 482.6,211.3 "/>
    <polyline points="358.2,133.9 304.5,166.9 183.9,91.3 223.8,66.2 179.7,38.4"/>
    <line x1="396.1" y1="157.3" x2="358.2" y2="133.4"/>
    <polyline points="312.4,93.4 363.5,61.8 490.3,140.5 538.2,110.5"/>
    <polyline points="1031.6,169.9 1088,206 1135,176.5"/>
    <line x1="668" y1="182.1" x2="767.6" y2="244.8"/>
    <polyline points="845.9,135.4 787.6,172.1 668.3,95.6"/>
    <polyline points="1025,110 980.9,138.1 861.7,61.1"/>
    <line x1="638.5" y1="166.4" x2="596.8" y2="140.2"/>
  </g>
  </svg>
