<svg version="1.1" id="Layer_1" xmlns="http://www.w3.org/2000/svg" xmlns:xlink="http://www.w3.org/1999/xlink" x="0px" y="0px" viewBox="0 0 1324 283.6" enable-background="new 0 0 1324 283.6" xml:space="preserve">

<path fill="none" stroke="#E6E7E8" stroke-linecap="round" stroke-miterlimit="10" d="M929.5,54.2"/>

<line fill="none" stroke="#D1D3D4" stroke-linecap="round" stroke-miterlimit="10" stroke-dasharray="3,3" x1="578.1" y1="228.1" x2="761.4" y2="184"/>

<line fill="none" stroke="#D1D3D4" stroke-linecap="round" stroke-miterlimit="10" stroke-dasharray="3,3" x1="276.4" y1="46.3" x2="377.3" y2="67.4"/>

<line fill="none" stroke="#D1D3D4" stroke-linecap="round" stroke-miterlimit="10" stroke-dasharray="3,3" x1="491.1" y1="45.5" x2="738.9" y2="94.4"/>

<line fill="none" stroke="#D1D3D4" stroke-linecap="round" stroke-miterlimit="10" stroke-dasharray="3,3" x1="310.7" y1="94.9" x2="341.4" y2="87.6"/>

<line fill="none" stroke="#D1D3D4" stroke-linecap="round" stroke-miterlimit="10" stroke-dasharray="3,3" x1="1001" y1="88.2" x2="799.4" y2="55.1"/>

<g>

<g>

<line fill="none" stroke="#D1D3D4" stroke-linecap="round" stroke-miterlimit="10" x1="998.2" y1="221.7" x2="996.7" y2="221.4"/>



<line fill="none" stroke="#D1D3D4" stroke-linecap="round" stroke-miterlimit="10" stroke-dasharray="3.0637,3.0637" x1="993.7" y1="221" x2="934.7" y2="211.7"/>

<polyline fill="none" stroke="#D1D3D4" stroke-linecap="round" stroke-miterlimit="10" points="933.2,211.4 931.7,211.2 933.1,210.8"/>



<line fill="none" stroke="#D1D3D4" stroke-linecap="round" stroke-miterlimit="10" stroke-dasharray="3.0337,3.0337" x1="936.1" y1="210.1" x2="1017.3" y2="191"/>

<polyline fill="none" stroke="#D1D3D4" stroke-linecap="round" stroke-miterlimit="10" points="1018.8,190.6 1020.2,190.3 1018.7,190"/>



<line fill="none" stroke="#D1D3D4" stroke-linecap="round" stroke-miterlimit="10" stroke-dasharray="2.9173,2.9173" x1="1015.9" y1="189.6" x2="936.6" y2="176.9"/>

<line fill="none" stroke="#D1D3D4" stroke-linecap="round" stroke-miterlimit="10" x1="935.2" y1="176.7" x2="933.7" y2="176.5"/>

</g>

</g>

<line fill="none" stroke="#D1D3D4" stroke-linecap="round" stroke-miterlimit="10" stroke-dasharray="3,3" x1="672.8" y1="46.9" x2="765.7" y2="66.4"/>

<line fill="none" stroke="#D1D3D4" stroke-linecap="round" stroke-miterlimit="10" stroke-dasharray="3,3" x1="765.7" y1="66.4" x2="813.5" y2="50.9"/>

<line fill="none" stroke="#D1D3D4" stroke-linecap="round" stroke-miterlimit="10" stroke-dasharray="3,3" x1="189.1" y1="153.9" x2="571.3" y2="61.3"/>

<line fill="none" stroke="#D1D3D4" stroke-linecap="round" stroke-miterlimit="10" stroke-dasharray="3,3" x1="377.3" y1="67.4" x2="436.4" y2="48.8"/>

<line fill="none" stroke="#D1D3D4" stroke-linecap="round" stroke-miterlimit="10" stroke-dasharray="3,3" x1="340.1" y1="116.9" x2="602.6" y2="158.5"/>

<line fill="none" stroke="#D1D3D4" stroke-linecap="round" stroke-miterlimit="10" stroke-dasharray="3,3" x1="823.8" y1="194" x2="678.7" y2="171.1"/>

<line fill="none" stroke="#D1D3D4" stroke-linecap="round" stroke-miterlimit="10" stroke-dasharray="3,3" x1="861.1" y1="162" x2="765.7" y2="147.7"/>

<line fill="none" stroke="#D1D3D4" stroke-linecap="round" stroke-miterlimit="10" stroke-dasharray="3,3" x1="292.9" y1="195.5" x2="373" y2="175.9"/>

<line fill="none" stroke="#D1D3D4" stroke-linecap="round" stroke-miterlimit="10" stroke-dasharray="3,3" x1="956.6" y1="122.7" x2="1135.9" y2="151.5"/>

<line fill="none" stroke="#D1D3D4" stroke-linecap="round" stroke-miterlimit="10" stroke-dasharray="3,3" x1="955.9" y1="122.7" x2="1012.4" y2="108.8"/>

<line fill="none" stroke="#D1D3D4" stroke-linecap="round" stroke-miterlimit="10" stroke-dasharray="3,3" x1="881.3" y1="69.2" x2="947.3" y2="48.4"/>

<line fill="none" stroke="#D1D3D4" stroke-linecap="round" stroke-miterlimit="10" stroke-dasharray="3,3" x1="1016.4" y1="59.9" x2="1065.3" y2="43.9"/>

<line fill="none" stroke="#D1D3D4" stroke-linecap="round" stroke-miterlimit="10" stroke-dasharray="3,3" x1="947.3" y1="48.4" x2="1016.4" y2="59.9"/>

<polyline fill="none" stroke="#D1D3D4" stroke-linecap="round" stroke-miterlimit="10" stroke-dasharray="3,3" points="765.7,147.7

874.4,116.9 811.5,106.4 "/>

<line fill="none" stroke="#D1D3D4" stroke-linecap="round" stroke-miterlimit="10" stroke-dasharray="3,3" x1="341.4" y1="87.6" x2="412.1" y2="99.2"/>

<line fill="none" stroke="#D1D3D4" stroke-linecap="round" stroke-miterlimit="10" stroke-dasharray="3,3" x1="571.9" y1="113.9" x2="684.8" y2="85.6"/>

<line fill="none" stroke="#D1D3D4" stroke-linecap="round" stroke-miterlimit="10" stroke-dasharray="3,3" x1="630.2" y1="215.5" x2="723.9" y2="230.3"/>

<line fill="none" stroke="#D1D3D4" stroke-linecap="round" stroke-miterlimit="10" stroke-dasharray="3,3" x1="422.5" y1="163.1" x2="504.6" y2="142.9"/>

<line fill="none" stroke="#D1D3D4" stroke-linecap="round" stroke-miterlimit="10" stroke-dasharray="3,3" x1="823.8" y1="194" x2="881.3" y2="179.6"/>

<path fill="none" stroke="#D1D3D4" stroke-linecap="round" stroke-miterlimit="10" d="M638.7,93.4"/>

<path fill="none" stroke="#D1D3D4" stroke-linecap="round" stroke-miterlimit="10" d="M694.6,134.8"/>

<path fill="none" stroke="#E6E7E8" stroke-linecap="round" stroke-miterlimit="10" d="M737.1,48.2"/>

<path fill="none" stroke="#E6E7E8" stroke-linecap="round" stroke-miterlimit="10" d="M702,34.9"/>

<g id="paper_1_">

<path fill="none" stroke="#E6E7E8" stroke-linecap="round" stroke-miterlimit="10" d="M655.7,19.2"/>

<g>

<polygon fill="none" stroke="#E6E7E8" stroke-linecap="round" stroke-miterlimit="10" points="668.5,39.5 652.3,47.6 652.3,23.9

668.5,15.7                    "/>

<line fill="none" stroke="#E6E7E8" stroke-linecap="round" stroke-miterlimit="10" x1="654.5" y1="27.9" x2="666.4" y2="21.9"/>

<line fill="none" stroke="#E6E7E8" stroke-linecap="round" stroke-miterlimit="10" x1="654.5" y1="31.6" x2="666.4" y2="25.6"/>

<line fill="none" stroke="#E6E7E8" stroke-linecap="round" stroke-miterlimit="10" x1="654.5" y1="35.3" x2="666.4" y2="29.3"/>

</g>

</g>

<g>

<polyline fill="none" stroke="#D1D3D4" stroke-linecap="round" stroke-miterlimit="10" points="893.7,168.2 880.9,173.3

880.9,140.1 909.9,128.7 909.9,139.3          "/>

<line fill="none" stroke="#D1D3D4" stroke-linecap="round" stroke-miterlimit="10" x1="884.8" y1="158.6" x2="893.8" y2="155"/>

<line fill="none" stroke="#D1D3D4" stroke-linecap="round" stroke-miterlimit="10" x1="884.8" y1="164.9" x2="893.6" y2="161.4"/>

<polygon fill="none" stroke="#D1D3D4" stroke-linecap="round" stroke-miterlimit="10" points="922.9,167.5 893.8,178.9

893.8,145.7 922.9,134.3       "/>

<line fill="none" stroke="#D1D3D4" stroke-linecap="round" stroke-miterlimit="10" x1="909.3" y1="153" x2="918.3" y2="149.3"/>

<line fill="none" stroke="#D1D3D4" stroke-linecap="round" stroke-miterlimit="10" x1="899.2" y1="157.1" x2="909.3" y2="153"/>

<line fill="none" stroke="#D1D3D4" stroke-linecap="round" stroke-miterlimit="10" x1="899.2" y1="163.4" x2="918.3" y2="155.6"/>

<line fill="none" stroke="#D1D3D4" stroke-linecap="round" stroke-miterlimit="10" x1="899.2" y1="169.3" x2="918.3" y2="161.5"/>

<line fill="none" stroke="#D1D3D4" stroke-linecap="round" stroke-miterlimit="10" x1="884.8" y1="152.7" x2="893.8" y2="149.1"/>

</g>

<g id="batabase_1_">

<path id="basic_4_" fill="none" stroke="#D1D3D4" stroke-linecap="round" stroke-linejoin="round" stroke-miterlimit="10" d="

M1042.1,99c0.1,0,0.1-0.1,0.2-0.1"/>

<path id="basic_3_" fill="none" stroke="#D1D3D4" stroke-linecap="round" stroke-linejoin="round" stroke-miterlimit="10" d="

M1028.9,89.8c-8.8,0-16-3-16-6.7v-7c0-3.7,7.1-6.7,16-6.7c8.8,0,16,3,16,6.7v7c0,0.5-0.3,1.4-0.3,1.4c0.4,0.3,0.3,1.3,0.3,1.3v7

c0,0.5-0.2,1.1-0.4,1.6l0.1,0.2c0.2,0.4,0.3,0.9,0.3,1.4v6.3c0,3.7-7.1,6.7-16,6.7c-8.8,0-16-3-16-6.7v-4.4c0-0.5,0.6-0.7,0.9-0.3

c2.2,2.6,8.1,4.5,15.1,4.5c4.6,0,8.7-0.8,11.6-2.1"/>

<path id="_x32_nd_4_" fill="none" stroke="#D1D3D4" stroke-linecap="round" stroke-linejoin="round" stroke-miterlimit="10" d="

M1042.1,89.5c0,0,0.1,0,0.1-0.1"/>

<path id="_x32_nd_3_" fill="none" stroke="#D1D3D4" stroke-linecap="round" stroke-linejoin="round" stroke-miterlimit="10" d="

M1028.9,99.4c-8.8,0-16-3-16-6.7v-4.4c0-0.5,0.6-0.7,0.9-0.3c2.2,2.6,8.1,4.5,15.1,4.5c4.7,0,8.9-0.8,11.8-2.2"/>

<path id="line_4_" fill="none" stroke="#D1D3D4" stroke-linecap="round" stroke-miterlimit="10" d="M1040.8,80.6

c-2.9,1.4-7.2,2.2-11.9,2.2c-8.8,0-16-3-16-6.7"/>

<path id="line_2_" fill="none" stroke="#D1D3D4" stroke-linecap="round" stroke-miterlimit="10" d="M1042.2,79.8

c-0.1,0-0.1,0.1-0.2,0.1"/>

<path id="c_12_" fill="none" stroke="#D1D3D4" stroke-linecap="round" stroke-miterlimit="10" d="M1019.8,103.6

c0.1,0.8-0.5,1.4-1.2,1.4s-1.4-0.7-1.5-1.5c-0.1-0.8,0.5-1.4,1.2-1.4S1019.7,102.9,1019.8,103.6z"/>

<path id="c_11_" fill="none" stroke="#D1D3D4" stroke-linecap="round" stroke-miterlimit="10" d="M1019.8,94.2

c0.1,0.8-0.5,1.4-1.2,1.4c-0.8,0-1.4-0.7-1.5-1.5c-0.1-0.8,0.5-1.4,1.2-1.4S1019.7,93.4,1019.8,94.2z"/>

<path id="c_10_" fill="none" stroke="#D1D3D4" stroke-linecap="round" stroke-miterlimit="10" d="M1019.8,84.6

c0.1,0.8-0.5,1.4-1.2,1.4s-1.4-0.7-1.5-1.5s0.5-1.4,1.2-1.4C1019.1,83.2,1019.7,83.8,1019.8,84.6z"/>

</g>

<g>

<path fill="none" stroke="#D1D3D4" stroke-linecap="round" stroke-miterlimit="10" d="M292.7,88.9c-4.1,1.1-7.9,0.8-10.5,0.2"/>

<path fill="none" stroke="#D1D3D4" stroke-linecap="round" stroke-miterlimit="10" d="M293.8,88.6c-0.1,0-0.2,0.1-0.2,0.1"/>

<path fill="none" stroke="#D1D3D4" stroke-linecap="round" stroke-miterlimit="10" d="M292.6,78c-1.7,0.5-3.8,0.8-6.2,0.8

c-5.3,0-9.7-1.6-9.7-3.6c0-2,4.3-3.6,9.7-3.6s9.7,1.6,9.7,3.6v4.7c0,2-4.3,3.6-9.7,3.6s-9.7-1.6-9.7-3.6v-4.7"/>

<path fill="none" stroke="#D1D3D4" stroke-linecap="round" stroke-miterlimit="10" d="M278.4,82.1l-3.1,2.5

c-0.9,0.7-1.4,1.8-1.4,2.8v20.6c0,1.1,0.6,2.1,1.7,2.6c2.4,1.2,6.2,2.1,10.6,2.1c4.4,0,8.2-0.8,10.6-2.1c1-0.5,1.7-1.5,1.7-2.6

V86.9c0-1.1-0.5-2.1-1.4-2.9l-2.4-1.9"/>

<path fill="none" stroke="#D1D3D4" stroke-linecap="round" stroke-linejoin="round" stroke-miterlimit="10" d="M273.9,92.8

c1.8,1.9,6.7,3.3,12.3,3.3c0.9,0,1.8,0,2.7-0.1l0,11.2c-0.9,0.1-1.8,0.1-2.7,0.1c-5.7,0-10.5-1.4-12.3-3.3"/>

</g>

<g>

<path fill="none" stroke="#D1D3D4" stroke-linecap="round" stroke-miterlimit="10" d="M537.2,103.3"/>

<path fill="none" stroke="#D1D3D4" stroke-linecap="round" stroke-miterlimit="10" d="M559.8,86.6l-20.9,8.3

c-3.8,1.5-6.2,4.6-6.2,7.9v14.7c0,1.9,2.6,3.2,4.8,2.3l13.7-5.5l5.3,4.2v-6.2l1.9-0.8c3.8-1.5,6.2-4.6,6.2-7.9V88.9

C564.5,86.9,561.9,85.7,559.8,86.6z"/>

<line fill="none" stroke="#D1D3D4" stroke-linecap="round" stroke-miterlimit="10" x1="556.6" y1="94.4" x2="559.3" y2="93.3"/>

<line fill="none" stroke="#D1D3D4" stroke-linecap="round" stroke-miterlimit="10" x1="538.3" y1="102.2" x2="553" y2="95.9"/>

<line fill="none" stroke="#D1D3D4" stroke-linecap="round" stroke-miterlimit="10" x1="556.4" y1="100.1" x2="559.3" y2="98.8"/>

<line fill="none" stroke="#D1D3D4" stroke-linecap="round" stroke-miterlimit="10" x1="538.3" y1="107.7" x2="556.4" y2="100.1"/>

<line fill="none" stroke="#D1D3D4" stroke-linecap="round" stroke-miterlimit="10" x1="556.4" y1="105.6" x2="559.3" y2="104.4"/>

<line fill="none" stroke="#D1D3D4" stroke-linecap="round" stroke-miterlimit="10" x1="538.3" y1="113.3" x2="552.9" y2="107.1"/>

</g>

<g id="macbook_1_">

<path fill="none" stroke="#E6E7E8" stroke-linecap="round" stroke-miterlimit="10" d="M822.9,33l0-15.9c0-0.8,0.8-1.4,1.6-1.1

l20.5,7c0.8,0.3,1.4,1.1,1.4,2l0,16.1l-11.3,5.7c-0.6,0.3-1.4,0.4-2.1,0.1l-21.2-7.3c-0.4-0.1-0.5-0.7-0.1-0.9L822.9,33"/>

<line fill="none" stroke="#E6E7E8" stroke-linecap="round" stroke-miterlimit="10" x1="843.2" y1="40.2" x2="824.9" y2="34"/>

<line fill="none" stroke="#E6E7E8" stroke-linecap="round" stroke-miterlimit="10" x1="836" y1="21.3" x2="835" y2="21"/>

<path fill="none" stroke="#E6E7E8" stroke-linecap="round" stroke-miterlimit="10" d="M824.3,19.2c0-0.1,0-0.1,0-0.2

c0.1-0.4,0.5-0.7,0.9-0.5l15.5,5.3l3.7,1.3"/>

<line fill="none" stroke="#E6E7E8" stroke-linecap="round" stroke-miterlimit="10" x1="839.9" y1="41.9" x2="821.8" y2="35.7"/>

<line fill="none" stroke="#E6E7E8" stroke-linecap="round" stroke-miterlimit="10" x1="836.6" y1="43.6" x2="818.3" y2="37.5"/>

</g>

<g>

<path fill="none" stroke="#D1D3D4" stroke-linecap="round" stroke-miterlimit="10" d="M408,181.4l-22.4-6.1c-1.9-0.5-3.2-2-3.2-3.6

l0-33.6c0-1.3,1.6-2.3,3.2-1.8l23,6.1c1.7,0.5,2.9,1.7,2.9,3.2l0,33.8C411.4,180.8,409.7,181.8,408,181.4z"/>

<path fill="none" stroke="#D1D3D4" stroke-linecap="round" stroke-miterlimit="10" d="M397.9,175.6c0,0.9-0.9,1.3-2,1

c-1.1-0.3-2-1.2-1.9-2.1c0-0.9,0.9-1.3,2-1C397,173.8,397.9,174.8,397.9,175.6z"/>

<path fill="none" stroke="#D1D3D4" stroke-linecap="round" stroke-miterlimit="10" d="M404.7,174.1l-16.8-4.4

c-1.9-0.5-3.2-1.7-3.2-3l0-23.6"/>

<line fill="none" stroke="#D1D3D4" stroke-linecap="round" stroke-miterlimit="10" x1="402.1" y1="143.9" x2="393.9" y2="141.8"/>

<line fill="none" stroke="#D1D3D4" stroke-linecap="round" stroke-miterlimit="10" x1="392.8" y1="141.4" x2="392.5" y2="141.3"/>

<path fill="none" stroke="#D1D3D4" stroke-linecap="round" stroke-miterlimit="10" d="M387.3,142.4l16.8,4.4c1.9,0.5,3.2,1.7,3.2,3

l0,6.8l0,16.8"/>

</g>

<path fill="none" stroke="#D1D3D4" stroke-linecap="round" stroke-miterlimit="10" d="M522.9,234"/>

<g>

<path fill="none" stroke="#D1D3D4" stroke-linecap="round" stroke-miterlimit="10" d="M639,144.8l22.3-8.7c1.6-0.6,3.4,0.3,3.4,1.7

v22.9c0,2.5-1.8,4.7-4.6,5.8l-29.1,11.4c-3.3,1.3-7.3-0.6-7.3-3.6v-17.9c0-3.4,2.5-6.6,6.3-8.1L639,144.8"/>

<line fill="none" stroke="#D1D3D4" stroke-linecap="round" stroke-miterlimit="10" x1="639.9" y1="159.4" x2="652.4" y2="154.5"/>

<line fill="none" stroke="#D1D3D4" stroke-linecap="round" stroke-miterlimit="10" x1="646.1" y1="152.1" x2="646.1" y2="162"/>

<line fill="none" stroke="#D1D3D4" stroke-linecap="round" stroke-miterlimit="10" x1="657.3" y1="140.3" x2="657.7" y2="140.1"/>

<path fill="none" stroke="#D1D3D4" stroke-linecap="round" stroke-miterlimit="10" d="M627.1,166v-8.3c0-3.4,2.5-6.6,6.3-8.1

l22-8.6"/>

<path fill="none" stroke="#D1D3D4" stroke-linecap="round" stroke-miterlimit="10" d="M636.9,145.3l0-2.2c0-0.8,0.6-1.6,1.5-2

l10.8-4.4c1-0.4,2.1,0.2,2.2,1l0,1.9"/>

</g>

<g>

<path id="path_9_" fill="none" stroke="#E6E7E8" stroke-miterlimit="10" d="M1083.9,31c0.3-0.4,0.6-1,0.6-1.8

c0-1.8-1.2-3.8-2.7-4.3c-0.7-0.2-1.4-0.1-1.9,0.2c-0.8-2.6-2.8-4.9-5-5.7c-3.1-1.1-5.6,1.1-5.7,4.8c0,0.6,0,1.2,0.2,1.7

c-2.7-0.7-4.9,1.2-5,4.4c-0.1,3.4,2.2,6.9,5,7.9l14,4.8c2.8,1,5.2-1,5.2-4.4C1088.6,35.5,1086.6,32.2,1083.9,31"/>

<path id="path_8_" fill="none" stroke="#E6E7E8" stroke-linecap="round" stroke-miterlimit="10" d="M1087.1,36.8

c0-0.2-0.1-0.4-0.2-0.6"/>

<path id="path_7_" fill="none" stroke="#E6E7E8" stroke-linecap="round" stroke-miterlimit="10" d="M1084.5,41.9

c1.5-0.2,2.7-1.7,2.7-3.8"/>

</g>

<g>

<path fill="none" stroke="#D1D3D4" stroke-linecap="round" stroke-miterlimit="10" d="M1186.4,170.2l-33.7,13.1

c-2.6,1-5.6-0.5-5.6-2.7v-26.4c0-2.6,1.8-4.9,4.8-6.1l36.1-14.1c1.6-0.6,3.5,0.3,3.5,1.7v27.9

C1191.5,166.5,1189.6,169,1186.4,170.2z"/>



<line fill="none" stroke="#D1D3D4" stroke-linecap="round" stroke-miterlimit="10" x1="1149.6" y1="153.7" x2="1189.1" y2="138.3"/>

<line fill="none" stroke="#D1D3D4" stroke-linecap="round" stroke-miterlimit="10" x1="1161.7" y1="150" x2="1161.7" y2="178.4"/>



<line fill="none" stroke="#D1D3D4" stroke-linecap="round" stroke-miterlimit="10" x1="1153.5" y1="149.8" x2="1153.7" y2="149.7"/>



<line fill="none" stroke="#D1D3D4" stroke-linecap="round" stroke-miterlimit="10" x1="1151.7" y1="150.5" x2="1151.9" y2="150.4"/>

<line fill="none" stroke="#D1D3D4" stroke-linecap="round" stroke-miterlimit="10" x1="1155.2" y1="149.1" x2="1155.5" y2="149"/>



<line fill="none" stroke="#D1D3D4" stroke-linecap="round" stroke-miterlimit="10" x1="1149.6" y1="157.9" x2="1158.8" y2="154.2"/>



<line fill="none" stroke="#D1D3D4" stroke-linecap="round" stroke-miterlimit="10" x1="1149.6" y1="161.2" x2="1159.1" y2="157.4"/>



<line fill="none" stroke="#D1D3D4" stroke-linecap="round" stroke-miterlimit="10" x1="1149.6" y1="164.2" x2="1159.3" y2="160.4"/>

<polyline fill="none" stroke="#D1D3D4" stroke-linecap="round" stroke-miterlimit="10" points="1181,152.5 1184.1,155.8

1181.8,161.1   "/>

<polyline fill="none" stroke="#D1D3D4" stroke-linecap="round" stroke-miterlimit="10" points="1169.9,156.1 1168.1,161.3

1171.3,164.4   "/>



<line fill="none" stroke="#D1D3D4" stroke-linecap="round" stroke-miterlimit="10" x1="1177.9" y1="149.6" x2="1174.1" y2="167.8"/>

</g>

<g>

<path fill="none" stroke="#E6E7E8" stroke-linecap="round" stroke-miterlimit="10" d="M271.6,16l3.4-1.7c0.7-0.4,1.6,0.2,1.6,1

v19.3c0,1-0.6,2-1.5,2.4L263,43.2c-1.2,0.6-2.6-0.3-2.6-1.6V23.3c0-1,0.5-1.9,1.4-2.3l4.3-2.2"/>

<line fill="none" stroke="#E6E7E8" stroke-linecap="round" stroke-miterlimit="10" x1="263.5" y1="30.1" x2="273.9" y2="25"/>

<line fill="none" stroke="#E6E7E8" stroke-linecap="round" stroke-miterlimit="10" x1="263.5" y1="33.8" x2="273.9" y2="28.6"/>

<line fill="none" stroke="#E6E7E8" stroke-linecap="round" stroke-miterlimit="10" x1="263.5" y1="37.9" x2="273.9" y2="32.8"/>

<line fill="none" stroke="#E6E7E8" stroke-linecap="round" stroke-miterlimit="10" x1="267.4" y1="23.7" x2="270.8" y2="22"/>

<line fill="none" stroke="#E6E7E8" stroke-linecap="round" stroke-miterlimit="10" x1="269.1" y1="21.1" x2="269.1" y2="24.8"/>

<path fill="none" stroke="#E6E7E8" stroke-linecap="round" stroke-miterlimit="10" d="M270.1,15.8c0,0,0-0.3,0-0.4

c-0.1-0.5-0.6-0.7-1.2-0.4c-0.6,0.4-1.1,1.3-1.2,2l-1,0.5c-0.3,0.2-0.5,0.5-0.5,0.9v1.2c0,0.3,0.3,0.5,0.6,0.4l4.4-2.3

c0.3-0.1,0.4-0.4,0.4-0.7v-1.3c0-0.3-0.3-0.5-0.6-0.3L270.1,15.8z"/>

<line fill="none" stroke="#E6E7E8" stroke-linecap="round" stroke-miterlimit="10" x1="269.1" y1="16.2" x2="269.1" y2="16.3"/>

</g>

<g>

<line fill="none" stroke="#E6E7E8" stroke-linecap="round" stroke-miterlimit="10" x1="456.2" y1="21.9" x2="456" y2="21.8"/>

<path fill="none" stroke="#E6E7E8" stroke-linecap="round" stroke-miterlimit="10" d="M470.8,36.8v-6.4c0-2.1-1.2-3.9-3.1-4.5

l-10.6-3.6"/>

<line fill="none" stroke="#E6E7E8" stroke-linecap="round" stroke-miterlimit="10" x1="454.3" y1="36.2" x2="470.3" y2="41.4"/>

<path fill="none" stroke="#E6E7E8" stroke-linecap="round" stroke-miterlimit="10" d="M465,23.3l-10.8-3.7

c-0.8-0.3-1.7,0.4-1.7,1.3v13.2c0,0.7,0.2,1.3,0.5,1.9l0,3.1c0,0.5,0.3,0.9,0.7,1l15.9,5.3c1,0.3,2.2-0.3,2.2-1.3l0-1.9

c0.3-0.5,0.5-1,0.5-1.6V29.3c0-2.1-1.2-3.9-3.1-4.5L465,23.3"/>

<polyline fill="none" stroke="#E6E7E8" stroke-linecap="round" stroke-linejoin="round" stroke-miterlimit="10" points="

454.4,29.1 456.1,29.7 456.8,32.2 458.9,26.5 459.8,35 461.4,31.3 462.6,31.7 463.6,34.4 466.2,29 468,37.2 468.9,33.8 470,34.1

"/>



<line fill="none" stroke="#E6E7E8" stroke-width="2" stroke-linecap="round" stroke-miterlimit="10" x1="457" y1="39" x2="456.8" y2="39"/>



<line fill="none" stroke="#E6E7E8" stroke-width="2" stroke-linecap="round" stroke-miterlimit="10" x1="458.8" y1="39.7" x2="458.6" y2="39.7"/>



<line fill="none" stroke="#E6E7E8" stroke-width="2" stroke-linecap="round" stroke-miterlimit="10" x1="455.2" y1="38.5" x2="455" y2="38.4"/>

</g>

<g>

<line fill="none" stroke="#D1D3D4" stroke-linecap="round" stroke-miterlimit="10" x1="153.3" y1="178.6" x2="135.7" y2="185.6"/>

<line fill="none" stroke="#D1D3D4" stroke-linecap="round" stroke-miterlimit="10" x1="180.8" y1="167.8" x2="167.8" y2="173.2"/>

<path fill="none" stroke="#D1D3D4" stroke-linecap="round" stroke-miterlimit="10" d="M158.5,175.8"/>

<path fill="none" stroke="#D1D3D4" stroke-linecap="round" stroke-miterlimit="10" d="M154.7,180v-9c0-1.1,0.8-2.2,2.1-2.7l7.2-2.8

c1-0.4,2.2,0.2,2.2,1.1v8.8"/>

<line fill="none" stroke="#D1D3D4" stroke-linecap="round" stroke-miterlimit="10" x1="160.4" y1="166.9" x2="160.4" y2="172.6"/>

<line fill="none" stroke="#D1D3D4" stroke-linecap="round" stroke-miterlimit="10" x1="160.4" y1="174.5" x2="160.4" y2="177.5"/>

<polygon fill="none" stroke="#D1D3D4" stroke-linecap="round" stroke-miterlimit="10" points="160.2,137.2 160.2,142.3 156,144

156,138.9 150.9,141.1 150.9,153.1 156,151 156,148 160.2,146.3 160.2,149.2 164.6,147.4 164.6,135.3        "/>

<path fill="none" stroke="#D1D3D4" stroke-linecap="round" stroke-miterlimit="10" d="M164.6,144.8l12.4-5c1.8-0.7,4,0.3,4,1.9

v27.9l-45.3,18v-28.9c0-1.3,0.9-2.6,2.4-3.2l12.8-5.2"/>

<path fill="none" stroke="#D1D3D4" stroke-linecap="round" stroke-miterlimit="10" d="M148,161.3l-4.9,1.9

c-0.7,0.3-1.5-0.1-1.5-0.8v-2.9"/>

<path fill="none" stroke="#D1D3D4" stroke-linecap="round" stroke-miterlimit="10" d="M148,169.1l-4.9,1.9

c-0.7,0.3-1.5-0.1-1.5-0.8v-3.4"/>

<path fill="none" stroke="#D1D3D4" stroke-linecap="round" stroke-miterlimit="10" d="M148,177l-4.9,1.9c-0.7,0.3-1.5-0.1-1.5-0.8

v-3.6"/>

<path fill="none" stroke="#D1D3D4" stroke-linecap="round" stroke-miterlimit="10" d="M177,149.2l-4.9,1.9

c-0.7,0.3-1.5-0.1-1.5-0.8v-2.7"/>

<path fill="none" stroke="#D1D3D4" stroke-linecap="round" stroke-miterlimit="10" d="M177,157.1l-4.9,1.9

c-0.7,0.3-1.5-0.1-1.5-0.8v-3.4"/>

<path fill="none" stroke="#D1D3D4" stroke-linecap="round" stroke-miterlimit="10" d="M177,164.9l-4.9,1.9

c-0.7,0.3-1.5-0.1-1.5-0.8v-3.4"/>

<path fill="none" stroke="#D1D3D4" stroke-linecap="round" stroke-miterlimit="10" d="M167.8,152.9l-4.9,1.9

c-0.7,0.3-1.5-0.1-1.5-0.8v-2.6"/>

<path fill="none" stroke="#D1D3D4" stroke-linecap="round" stroke-miterlimit="10" d="M157.9,157.1l-4.9,1.9

c-0.7,0.3-1.5-0.1-1.5-0.8v-2.9"/>

<path fill="none" stroke="#D1D3D4" stroke-linecap="round" stroke-miterlimit="10" d="M167.8,160.7l-4.9,1.9

c-0.7,0.3-1.5-0.1-1.5-0.8v-2.6"/>

<path fill="none" stroke="#D1D3D4" stroke-linecap="round" stroke-miterlimit="10" d="M157.9,164.9l-4.9,1.9

c-0.7,0.3-1.5-0.1-1.5-0.8v-2.9"/>

</g>

<g>

<g>

<path fill="none" stroke="#A23835" stroke-miterlimit="10" d="M336.6,259.1L268,258l1.3-35.5c0.1-2.4,2.2-3.8,5.6-3.7l54,0.9

c4.2,0.1,9,3.6,8.9,6.6L336.6,259.1z"/>

<line fill="none" stroke="#A23835" stroke-miterlimit="10" x1="336.9" y1="253.1" x2="268.2" y2="252"/>

<path fill="none" stroke="#A23835" stroke-miterlimit="10" d="M300.1,255.6"/>

<path fill="none" stroke="#A23835" stroke-miterlimit="10" d="M305.3,258.6l9.7,5.5c1.6,0.9,1.7,2.4,0.2,2.4l-16.5-0.4

c-2.9-0.1-3.6-0.9-4.9-3l-3.1-4.4"/>

<path fill="none" stroke="#A23835" stroke-miterlimit="10" d="M272.4,226.3c0.1-3.2,1.8-3.7,6.1-3.6l54.4,0.8"/>

<line fill="none" stroke="#A23835" stroke-miterlimit="10" x1="304" y1="221.1" x2="300.7" y2="221.1"/>

</g>

</g>

<g>

<line fill="none" stroke="#A23835" stroke-miterlimit="10" x1="1046.7" y1="251.8" x2="1022.3" y2="251.5"/>

<path fill="none" stroke="#A23835" stroke-miterlimit="10" d="M1022.2,250.9c0,2.5-2.6,4.8-5.8,5.1c-3.2,0.3-5.8-1.4-5.8-3.9

c0-2.5,2.6-4.8,5.8-5.1S1022.2,248.4,1022.2,250.9z"/>

<path fill="none" stroke="#A23835" stroke-miterlimit="10" d="M1010.2,251.4l-2.2,0c-3.3,0-3.1-0.3-3.1-2l0-2.4

c0-1,0.7-1.5,1.9-1.5l1.2,0l-0.4-20.3c0-1.4,2.3-3.2,4.7-3.6l31.1,0.3l10.1,0.1c3.3,0,3.4,2.3,4.3,3.6l7.5,11.7l0.2,8.5"/>

<line fill="none" stroke="#A23835" stroke-miterlimit="10" x1="1045.5" y1="246" x2="1025.2" y2="245.8"/>

<path fill="none" stroke="#A23835" stroke-miterlimit="10" d="M1062,246.2l3.3,0c2.2-0.1,2.2,0.3,2.2,1.6l0,1.8

c0,2.1-1.5,2.2-2.9,2.2c-1.2,0-4,0-5.9,0"/>

<polyline fill="none" stroke="#A23835" stroke-miterlimit="10" points="1053,225.4 1039.7,225.2 1039.9,236.2 1064.5,236.5                "/>

<path fill="none" stroke="#A23835" stroke-miterlimit="10" d="M1053,225.4"/>

<path fill="none" stroke="#A23835" stroke-miterlimit="10" d="M1058.5,251.4c0,2.5-2.6,4.8-5.9,5.2c-3.3,0.3-5.9-1.4-5.9-4

c0-2.5,2.6-4.8,5.9-5.2C1055.9,247.1,1058.5,248.9,1058.5,251.4z"/>

<line fill="none" stroke="#A23835" stroke-miterlimit="10" x1="1028.9" y1="234.3" x2="1018" y2="234.2"/>

<line fill="none" stroke="#A23835" stroke-miterlimit="10" x1="1023.6" y1="229.5" x2="1023.8" y2="239.1"/>

<path fill="none" stroke="#A23835" stroke-miterlimit="10" d="M1045.1,224.3"/>

<path fill="none" stroke="#A23835" stroke-miterlimit="10" d="M1044,221.7c-0.1-2.6-0.7-3.3,3-3.3l0.4,0c2.9,0,3.1,0.5,3.1,1.9

l0,1.7"/>

</g>

<g>

<g>

<path fill="none" stroke="#A23835" stroke-miterlimit="10" d="M769.7,216.4l9.4-0.6c2.1-0.1,4.5,1.7,4.5,3.3l-0.2,37.7

c0,2-1.6,3.4-4.1,3.6l-33.4,2.1c-3.2,0.2-7-2.6-7-5.3l0.2-35.8c0-1.9,1.5-3.2,3.9-3.4l11.8-0.7"/>

<line fill="none" stroke="#A23835" stroke-miterlimit="10" x1="747.4" y1="237.4" x2="775.8" y2="235.7"/>

<line fill="none" stroke="#A23835" stroke-miterlimit="10" x1="747.4" y1="244.6" x2="775.7" y2="242.9"/>

<line fill="none" stroke="#A23835" stroke-miterlimit="10" x1="747.3" y1="252.7" x2="775.7" y2="251"/>

<line fill="none" stroke="#A23835" stroke-miterlimit="10" x1="758" y1="228" x2="767.3" y2="227.4"/>

<line fill="none" stroke="#A23835" stroke-miterlimit="10" x1="762.7" y1="224.2" x2="762.6" y2="231.5"/>

<path fill="none" stroke="#A23835" stroke-miterlimit="10" d="M765.5,214.6c0-0.1,0-0.6-0.1-0.8c-0.4-1.1-1.8-2-3.2-1.8

c-1.7,0.2-3.1,1.5-3.2,3l-2.8,0.2c-0.9,0.1-1.4,0.5-1.4,1.2l0,2.4c0,0.6,0.8,1.2,1.5,1.2l12.1-0.8c0.7,0,1.2-0.5,1.2-1l0-2.5

c0-0.6-0.8-1.2-1.5-1.1L765.5,214.6z"/>

</g>

</g>

<path fill="none" stroke="#D1D3D4" stroke-linecap="round" stroke-miterlimit="10" d="M451.6,122"/>

<g id="beaker_1_">

<path fill="none" stroke="#D1D3D4" stroke-linecap="round" stroke-miterlimit="10" d="M780.2,83c-3.3,0-6-1.1-6-2.5v-2.8

c0-1.4,2.7-2.5,6-2.5s6,1.1,6,2.5v0.1v2.6c0,1.2-1.3,1.7-1.3,1.7v6.9v0.1l8,12.1l0.1,2.6c0,0-0.5,5-12.7,5c-11.7,0-12.6-5-12.6-5

v-2.6l8-12.2v-6.8"/>

<path fill="none" stroke="#D1D3D4" stroke-linecap="round" stroke-miterlimit="10" d="M782.7,77.3c0.8,0.2,1.3,0.5,1.3,0.9

c0,0.3-0.5,0.6-1.2,0.8c-0.7,0.2-1.6,0.3-2.5,0.3c-2.1,0-3.7-0.5-3.7-1.1c0-0.4,0.7-0.8,1.7-1"/>

<path fill="none" stroke="#D1D3D4" stroke-linecap="round" stroke-miterlimit="10" d="M782.1,101.4c-0.6,0-1.2,0-1.8,0

c-1.2,0-2.4-0.1-3.6-0.2"/>

<path fill="none" stroke="#D1D3D4" stroke-linecap="round" stroke-miterlimit="10" d="M783.8,101.3c-0.2,0-0.5,0-0.7,0.1"/>

<path fill="none" stroke="#D1D3D4" stroke-linecap="round" stroke-miterlimit="10" d="M782.2,99.3c-0.6,0-1.3,0-1.9,0

c-1.2,0-2.4-0.1-3.5-0.2"/>

<path fill="none" stroke="#D1D3D4" stroke-linecap="round" stroke-miterlimit="10" d="M783.9,99.2c-0.2,0-0.4,0-0.7,0.1"/>

<path fill="none" stroke="#D1D3D4" stroke-linecap="round" stroke-miterlimit="10" d="M782.2,97.2c-0.6,0-1.3,0-1.9,0

c-1.2,0-2.3-0.1-3.4-0.2"/>

<path fill="none" stroke="#D1D3D4" stroke-linecap="round" stroke-miterlimit="10" d="M784,97.1c-0.2,0-0.4,0-0.7,0.1"/>

<path fill="none" stroke="#D1D3D4" stroke-linecap="round" stroke-miterlimit="10" d="M782.6,90.9c-0.7,0.1-1.5,0.2-2.3,0.2

c-2.6,0-4.7-0.7-4.7-1.7c0-0.1,0-0.2,0.1-0.3"/>

<path fill="none" stroke="#D1D3D4" stroke-linecap="round" stroke-miterlimit="10" d="M788.4,109.2"/>

</g>

<g>

<g>

<path id="path_21_" fill="none" stroke="#A23835" stroke-miterlimit="10" d="M569.8,236.8c0.9-1.1,1.5-2.5,1.5-4

c0.1-3.9-3.1-7.2-7.1-7.4c-1.9-0.1-3.6,0.5-4.9,1.6c-2.2-5-7.1-8.7-13-9c-8-0.4-14.5,5.4-14.7,13.1c0,1.2,0.1,2.4,0.4,3.6

c-7,0-12.6,5.2-12.8,12c-0.1,7.1,5.6,13.1,12.9,13.5l36,2c7.3,0.4,13.3-5,13.5-12C581.9,243.5,576.6,237.7,569.8,236.8"/>

<path id="path_20_" fill="none" stroke="#A23835" stroke-miterlimit="10" d="M571.3,259.3c4-1.4,6.8-5,6.9-9.4"/>

</g>

</g>

<g>

<g>

<path fill="none" stroke="#A23835" stroke-miterlimit="10" d="M1305.6,253l-68.6-1.1l1.3-35.5c0.1-2.4,2.2-3.8,5.6-3.7l54,0.9

c4.2,0.1,9,3.6,8.9,6.6L1305.6,253z"/>

<line fill="none" stroke="#A23835" stroke-miterlimit="10" x1="1305.8" y1="247" x2="1237.2" y2="245.9"/>

<path fill="none" stroke="#A23835" stroke-miterlimit="10" d="M1269,249.4"/>

<path fill="none" stroke="#A23835" stroke-miterlimit="10" d="M1274.3,252.5l9.7,5.5c1.6,0.9,1.7,2.4,0.2,2.4l-16.5-0.4

c-2.9-0.1-3.6-0.9-4.9-3l-3.1-4.4"/>

<path fill="none" stroke="#A23835" stroke-miterlimit="10" d="M1241.3,220.2c0.1-3.2,1.8-3.7,6.1-3.6l54.4,0.8"/>

<line fill="none" stroke="#A23835" stroke-miterlimit="10" x1="1273" y1="215" x2="1269.6" y2="214.9"/>

</g>

</g>

<g>

<line fill="none" stroke="#A23835" stroke-miterlimit="10" x1="66.7" y1="251.8" x2="42.3" y2="251.5"/>

<path fill="none" stroke="#A23835" stroke-miterlimit="10" d="M42.2,250.9c0,2.5-2.6,4.8-5.8,5.1c-3.2,0.3-5.8-1.4-5.8-3.9

c0-2.5,2.6-4.8,5.8-5.1S42.2,248.4,42.2,250.9z"/>

<path fill="none" stroke="#A23835" stroke-miterlimit="10" d="M30.2,251.4l-2.2,0c-3.3,0-3.1-0.3-3.1-2l0-2.4c0-1,0.7-1.5,1.9-1.5

l1.2,0l-0.4-20.3c0-1.4,2.3-3.2,4.7-3.6l31.1,0.3l10.1,0.1c3.3,0,3.4,2.3,4.3,3.6l7.5,11.7l0.2,8.5"/>

<line fill="none" stroke="#A23835" stroke-miterlimit="10" x1="65.5" y1="246" x2="45.2" y2="245.8"/>

<path fill="none" stroke="#A23835" stroke-miterlimit="10" d="M82,246.2l3.3,0c2.2-0.1,2.2,0.3,2.2,1.6l0,1.8

c0,2.1-1.5,2.2-2.9,2.2c-1.2,0-4,0-5.9,0"/>

<polyline fill="none" stroke="#A23835" stroke-miterlimit="10" points="73,225.4 59.7,225.2 59.9,236.2 84.5,236.5         "/>

<path fill="none" stroke="#A23835" stroke-miterlimit="10" d="M73,225.4"/>

<path fill="none" stroke="#A23835" stroke-miterlimit="10" d="M78.5,251.4c0,2.5-2.6,4.8-5.9,5.2c-3.3,0.3-5.9-1.4-5.9-4

c0-2.5,2.6-4.8,5.9-5.2C75.9,247.1,78.5,248.9,78.5,251.4z"/>

<line fill="none" stroke="#A23835" stroke-miterlimit="10" x1="48.9" y1="234.3" x2="38" y2="234.2"/>

<line fill="none" stroke="#A23835" stroke-miterlimit="10" x1="43.6" y1="229.5" x2="43.8" y2="239.1"/>

<path fill="none" stroke="#A23835" stroke-miterlimit="10" d="M65.1,224.3"/>

<path fill="none" stroke="#A23835" stroke-miterlimit="10" d="M64,221.7c-0.1-2.6-0.7-3.3,3-3.3l0.4,0c2.9,0,3.1,0.5,3.1,1.9l0,1.7"/>

</g>

</svg>

