<svg id="main-movie" version="1.1" xmlns="http://www.w3.org/2000/svg" xmlns:xlink="http://www.w3.org/1999/xlink" x="0px" y="0px" viewBox="0 0 1332 281" enable-background="new 0 0 1332 281" xml:space="preserve">

<!-- line1 -->
 <g class="line1">
      <path id="browser" d="
      M47.4,252.9l-4.7-5.8l4.7-5.7 M54.8,237l-4.9,21.8 M66.9,268.7H21.6c-2.6,0-4.7-2.1-4.7-4.7v-37.4c0-2.6,2.1-4.7,4.7-4.7h45.3c2.6,0,4.7,2.1,4.7,4.7V264C71.6,266.6,69.5,268.7,66.9,268.7z M58,241.5l4.7,5.7l-4.7,5.8 M20.4,227.9h48.3 M31.6,232.5H20.4 M20.4,236.7h11.3 M31.6,240.6H20.4 M35.2,266.2v-36.5 M20.4,225.1h0.2 M22.8,225.1h0.1 M25.2,225.1L25.2,225.1
      M323.9,265c0.9,1.4-0.1,3.2-1.7,3.2h-61.6c-1.6,0-2.6-1.8-1.8-3.2l7-11.8v-28.7c0-2.4,1.9-4.3,4.3-4.3h41.6c2.4,0,4.3,1.9,4.3,4.3v28.7L323.9,265z M270.7,225.8c0.8-0.8,1.9-1.3,3.1-1.3h34.3 M268.2,257.9h45 M266.2,261.9H316 M311.2,253.9h-40.9 M291.8,222.4H290
      M563.4,258c0,0-0.4,0.2-0.7,0.4 M563.1,245.9c0.3-0.1,0.5-0.2,0.6-0.2 M563.4,233.1c0,0-0.3,0.1-0.5,0.2 M545.9,246.2c-11.4,0-20.6-3.9-20.6-8.7v-9.1c0-4.8,9.3-8.7,20.6-8.7s20.6,3.9,20.6,8.7v9.1c0,0.6-0.4,1.7-0.4,1.7c0.6,0.4,0.4,1.7,0.4,1.7v9.1c0,0.7-0.2,1.4-0.6,2l0.1,0.2c0.3,0.6,0.4,1.2,0.4,1.7v8.3c0,4.8-9.3,8.7-20.6,8.7s-20.6-3.9-20.6-8.7v-5.8c0-0.6,0.7-0.9,1.2-0.4c2.8,3.4,10.5,5.9,19.5,5.9c5.9,0,11.3-1.1,15.1-2.8 M545.9,258.7c-11.4,0-20.6-3.9-20.6-8.7v-5.8c0-0.6,0.7-0.9,1.2-0.4c2.8,3.4,10.5,5.9,19.5,5.9c6.1,0,11.5-1.1,15.3-2.8 M561.3,234.2c-3.8,1.8-9.3,2.9-15.4,2.9c-11.4,0-20.6-3.9-20.6-8.7 M534.2,264.3c0.1,1-0.6,1.8-1.6,1.8c-1,0-1.9-0.9-2-1.9c-0.1-1,0.6-1.8,1.6-1.8C533.2,262.4,534.1,263.3,534.2,264.3z M534.2,252c0.1,1-0.6,1.8-1.6,1.8c-1,0-1.9-0.9-2-1.9c-0.1-1,0.6-1.8,1.6-1.8C533.2,250.1,534.1,251,534.2,252z M534.2,239.5c0.1,1-0.6,1.8-1.6,1.8c-1,0-1.9-0.9-2-1.9c-0.1-1,0.6-1.8,1.6-1.8C533.2,237.6,534.1,238.5,534.2,239.5z
      M799.9,269.4H780c-2.3,0-4.2-1.9-4.2-4.2v-40.1c0-2.3,1.9-4.2,4.2-4.2h19.9c2.3,0,4.2,1.9,4.2,4.2v40.1C804.1,267.5,802.2,269.4,799.9,269.4z M789.9,267.4L789.9,267.4c-1.1,0-1.9-0.9-1.9-1.9l0,0c0-1.1,0.9-1.9,1.9-1.9l0,0c1.1,0,1.9,0.9,1.9,1.9l0,0C791.9,266.5,791,267.4,789.9,267.4z M781,227.8h15.5c2.5,0,4.5,2,4.5,4.5v27.2 M798.4,261.5h-14.9c-2.5,0-4.5-2-4.5-4.5v-26.5 M794.9,225h-5.6 M787.1,225h-0.3
      M1068.1,262.9h-57.7v-36.3c0-3.4,2.8-6.2,6.2-6.2h45.3c3.4,0,6.2,2.8,6.2,6.2V262.9z M1010.6,256h57.2 M1015,226.3c0.7-0.9,1.8-1.5,3-1.5h46.3 M1040.1,222.7h-1.7 M1046.4,262.9l4.5,5.2c0.6,0.6,0.1,1.7-0.8,1.7h-21.8c-0.9,0-1.3-1-0.8-1.7l4.5-5.2
      M1307,241.7c7,0.4,12.4,6.4,12.3,13.7c-0.2,7.8-6.4,14.2-13.9,14.4h-37.1c-7.6,0.2-13.6-5.4-13.4-13.3c0.1-7.5,5.9-13.7,13.1-14.3c-0.3-1.3-0.4-2.6-0.4-3.9c0.2-8.5,7-15.5,15.1-15.6c6-0.1,11.1,3.6,13.4,8.9c1.3-1.3,3.2-2.1,5.1-2.1c4.1,0,7.4,3.3,7.3,7.6C1308.5,238.9,1307.9,240.4,1307,241.7 M1315.4,252.5c-0.1-0.5-0.3-0.9-0.4-1.4 M1315.6,255.5c-0.1,4.8-3,9.1-7.2,10.9"/>
</g>

               <!-- line 2 -->
 <g class="line2">
      <path d="
      M410.6,140.9l-0.3-0.1 M412.1,141.9l16.5,10.3c2.9,1.8,4.8,5,4.8,8.3v9.8 M432.6,177l-24.8-15.1 M424.4,147.1l6.7,4.2c2.9,1.8,4.8,5,4.8,8.3v16.9c0,1-0.3,1.7-0.8,2.3v3c0,1.5-1.8,1.9-3.5,1l-24.6-15.3c-0.7-0.4-1.1-1.1-1.1-1.8V161c-0.5-1-0.8-2-0.8-3.1v-20c0-1.3,1.4-2,2.6-1.3L424.4,147.1 M432.1,165.8l-1.7-1l-1.4,4.9l-2.8-13.4l-4.1,7.1l-1.5-4.6l-2-1.2l-2.5,4.9l-1.3-13.3l-3.2,7.7l-1.2-4.1l-2.7-1.7 M411.9,167.5l-0.3-0.2 M414.5,169.2l0.3,0.2 M409.1,165.8l-0.3-0.2
      M901.4,148.5l16.4-10.3c1.2-0.7,2.5,0,2.5,1.3l0.1,22.1c0,2.4-1.3,4.7-3.3,6l-21.5,13.5c-2.5,1.5-5.4,0-5.4-2.9l0-17.3c0-3.3,1.8-6.5,4.7-8.3L901.4,148.5 M902.1,162.5l9.2-5.8 M906.6,155l0,9.5 M915.2,142.4l-0.3,0.2 M892.7,170l0-8c0-3.3,1.8-6.5,4.7-8.3l16.2-10.1                        M899.8,149.2l0-2.1c0-0.8,0.4-1.6,1.1-2l8-5.2c0.7-0.5,1.6,0,1.6,0.8l0,1.9"/>
</g>

<!-- line 3 -->
 <g class="line3">
      <path d="
      M299.9,85.2c0.1,0,0.2-0.1,0.2-0.1 M298.2,85.5c-3.4,1-6.5,0.7-8.7,0.2 M298.2,75.4c-1.4,0.5-3.2,0.8-5.1,0.8c-4.4,0-7.9-1.5-7.9-3.4c0-1.8,3.6-3.4,7.9-3.4c4.4,0,7.9,1.5,7.9,3.4v4.3c0,1.8-3.6,3.4-7.9,3.4c-4.4,0-7.9-1.5-7.9-3.4v-4.3 M299.8,79.2l1.9,1.7c0.8,0.7,1.2,1.6,1.2,2.6V103c0,1-0.5,1.9-1.4,2.4c-2,1.1-5.1,1.9-8.7,1.9c-3.6,0-6.7-0.8-8.7-1.9c-0.9-0.5-1.4-1.4-1.4-2.4V84.1c0-1,0.4-1.9,1.2-2.6l2.6-2.3 M282.8,89c1.5,1.8,5.4,3.1,10.1,3.1c0.8,0,1.5-0.1,2.2-0.1v10.3c-0.7,0.1-1.4,0.1-2.2,0.1c-4.6,0-8.6-1.3-10.1-3
      M556.3,74v13.4c0,3.1-1.7,5.9-4.5,7.3l-1.4,0.7v5.8l-3.8-3.8l-10,5c-1.6,0.8-3.5-0.4-3.5-2.1V86.9c0-3.1,1.7-5.9,4.5-7.3l15.2-7.6C554.4,71.1,556.3,72.3,556.3,74z M552.5,78.2l-2,1 M548,80.5l-10.7,5.8 M537.2,91.4l15.3-8.1 M550.4,89.5l2.1-1.1 M537.2,96.5l10.6-5.7
      M792.6,78.9c-3,0-5.4-1.1-5.4-2.4v-2.7c0-1.3,2.4-2.4,5.4-2.4c3,0,5.4,1.1,5.4,2.4v2.7c0,1.2-1.1,1.7-1.1,1.7v6.7V85l7.2,11.9v2.6c0,0-0.5,4.8-11.5,4.8c-10.5,0-11.4-4.8-11.4-4.8v-2.6l7.2-12v-6.6 M794.9,73.4c0.7,0.2,1.1,0.5,1.1,0.8c0,0.3-0.4,0.6-1.1,0.8c-0.6,0.2-1.4,0.3-2.3,0.3c-1.8,0-3.4-0.5-3.4-1.1c0-0.4,0.6-0.8,1.6-1 M794.8,86.3c-0.6,0.2-1.3,0.2-2.1,0.2c-2.3,0-4.3-0.7-4.3-1.6 M794.4,91.4h-4.7 M796.1,91.4h0.2 M794.4,94.4h-4.7 M796.1,94.4h0.2                  M794.4,97.4h-4.7 M796.3,97.4h-0.2
      M1037.2,98.3l-8.2,4.1V75.5l18.7-9.3v8.6 M1037.2,87.6l-5.8,2.9 M1037.1,92.8l-5.7,2.8 M1055.9,97.7l-18.6,9.3V80l18.6-9.3V97.7z M1053,88.1l-12.3,6.3 M1040.7,99.2l12.3-6.3 M1037.2,82.8l-5.8,2.9 M1053,83.1l-12.3,6.3"/>
</g>

<!-- line 4 -->
<g class="line4">
      <path d="
      M163.2,34l5.5-3.5 M181.1,22.8l-3.7,2.4l-0.5,0.4 M170.7,32.4v-5.2c0-0.7,0.2-1.3,0.7-1.6l2.9-1.8c0.4-0.3,0.9,0,0.9,0.6v5.1 M173,27.7l0-3 M173,30.8v-1.7 M174.5,7.5v6.9l-1.8,1.2v-1.7L171,15v1.7l-2.1,1.4v-6.9l2.1-1.4v2.9l1.7-1.1V8.7L174.5,7.5z M174.7,11.8l4.4-2.8c2.6-1.6,2.2,2.1,2.2,3.8V26l-18.4,11.3V23c0-2.4,0-3.8,1.6-4.7l4.3-2.7 M167.8,24.1l-2,1.2c-0.3,0.2-0.7,0-0.7-0.4v-1.7 M167.9,28.6l-2,1.2c-0.3,0.2-0.7,0-0.7-0.4v-1.9 M179.6,16.4l-2,1.2c-0.3,0.2-0.7,0-0.7-0.4v-1.5 M179.7,21.1l-2,1.2                                c-0.3,0.2-0.7,0-0.7-0.4v-1.9 M175.9,18.7l-2,1.2c-0.3,0.2-0.7,0-0.7-0.4V18 M171.8,21.4l-2,1.2c-0.3,0.2-0.7,0-0.7-0.4v-1.7
      M421.1,28.6l-9.6-5.3 M411.5,23c0,1.3-1.1,2-2.3,1.5c-1.3-0.5-2.3-2-2.3-3.3s1.1-2,2.3-1.5C410.4,20.2,411.5,21.7,411.5,23z M406.7,20.8l-0.9-0.5c-1.3-0.7-1.2-0.8-1.2-1.7l0-1.3c0-0.5,0.3-0.7,0.8-0.4l0.4,0.2V6.1c0-0.7,0.9-1.2,1.8-0.9l12.3,6.7l4,2.2c1.3,0.7,1.3,2,1.7,2.9l2.9,7.9v4.6 M412.6,20.9l8.1,4.4 M427.2,28.9l1.3,0.7c0.9,0.4,0.9,0.6,0.9,1.3l0,1c0,1.1-0.6,0.8-1.2,0.6c-0.4-0.2-1.6-0.9-2.3-1.3 M428.2,24.2l-9.7-5.4v-5.9l5.2,2.9 M425.8,31c0,1.3-1.1,2-2.4,1.6s-2.3-2-2.3-3.4s1.1-2,2.4-1.6C424.7,28.1,425.8,29.6,425.8,31z M409.8,13.1l4.3,2.4 M412.1,17v-5.2 M420.2,11.9c0-1.4-0.2-1.9,1.2-1.2l0.1,0.1c1.2,0.6,1.2,0.9,1.2,1.7l0,0.9
      M676.4,28.5l-16.2,8V13.2l16.2-8V28.5z M662.4,17.2l11.9-5.9 M674.3,14.9l-11.9,5.9 M674.3,18.5l-11.9,5.9
      M909.4,21.5V5.9c0-0.8,0.8-1.3,1.6-0.9l20.5,9.4c0.8,0.4,1.4,1.3,1.4,2.1v15.9l-11.3,4.2c-0.6,0.2-1.4,0.2-2.1-0.1l-21.2-9.8c-0.4-0.2-0.5-0.8-0.1-0.9L909.4,21.5 M911.5,22.6l18.3,8.4 M921.6,11.4l1,0.5 M910.8,9.1c0-0.1,0-0.1,0-0.2c0.1-0.4,0.5-0.6,0.9-0.4l15.5,7.2l3.7,1.7 M926.5,32.3l-18.1-8.4 M904.8,25.3l18.2,8.3
      M1177.9,8.3v12.7c0,2.9-1.6,5.6-4.2,6.9l-1.4,0.7v5.4l-3.6-3.6l-9.5,4.8c-1.5,0.8-3.3-0.3-3.3-2V20.5c0-2.9,1.6-5.6,4.2-6.9l14.4-7.2C1176.1,5.6,1177.9,6.7,1177.9,8.3z M1174.3,12.2l-1.9,1 M1159.8,20l10.2-5.4 M1159.8,24.8l14.5-7.7 M1174.3,21.9l-2,1.1 M1159.8,29.6l10.1-5.4"/>
</g>


<!-- red icon products -->
<g id="red_icons">
    <path d="
      M1141.3,155.9l10.3-6v0l0,0v0l10.3,6 M1148.2,159.9l3.3-2l3.3,2 M1168.8,160l2.3,1.4v8.1l-19.6,11.1l-19.6-11.1v-8.1l2.3-1.4 M1161.8,164l2.3,1.4l-12.6,7.2l-12.6-7.2l2.3-1.4 M1161.8,164l9.3-5.3v-8.1l-19.6-11.5v0l0,0v0l-19.6,11.5v8.1l19.6,11.1L1161.8,164 M1154.9,159.9l-3.3,1.9l-12.6-7.2l12.6-7.5l12.6,7.5L1154.9,159.9
      M666,142.1c0.1,0.5,1.3,2.6-0.4,5.3c-2.5-6.9-7.8-6.1-7.8-6.1c0,0.7,1.1,4.6-4.6,15.4c-0.1-1.6-0.4-3-1.3-4c0.1,5.4-9.1,17.5,3.9,18.1c-3.1-4.6,1.1-8.1,2-14c0.8,0.9,1,2.1,0.8,3.6c0.4-0.7,2.5-4.5,2-8.8c2.5,0.6,4.1,2.3,5,4.9c0.8,2.6,1,5-0.3,8.5C680.2,148,666.9,142.5,666,142.1z M666.7,166.7c-1.6,1-3.4,2.1-4.9,3.1c-0.9,0.6-1.6,1.7-1.6,3l-0.3,5.4c3.2-1.9,7-4.2,10.3-6.1c0.5-0.3,0.8-1.2,0.5-1.7l-1.6-3C668.6,166.5,667.6,166.2,666.7,166.7z M670.3,174.6c-2.4,1.4-7.8,4.7-9.8,5.9c0,0,0.7,2.4,1.6,2c1.5-0.9,6.2-3.7,6.6-4.4C669.3,177.1,670.8,174.3,670.3,174.6z M658.3,181.6c0,0-2.7,1.5-3.9,2.2c0.1,0.9,3.4,1.4,5.1-0.1C659.3,182.8,658.9,181.5,658.3,181.6z M653.9,181.6c-1.3,0.1-0.1-4.6,0.6-6.9c0.1-0.5,1.4-1.3,2.4-1.9c0.7-0.4,1.3,0.2,1.3,1l-0.3,5.2L653.9,181.6z
      M169.2,150c0,1.6-1.2,3.8-2.7,4.8c-1.5,1-2.8,0.5-2.9-1.2c0-1.6,1.2-3.8,2.7-4.8C167.9,147.9,169.2,148.4,169.2,150z M171.3,147.8l18-11v20.5l-17.6,11.2 M175.5,174.2l3.7-10.3l4.3,5.3 M178.7,141.3l0,2 M166.9,179.3c0,2-3.3,4.6-3.3,1.1v-16.3 M163.4,172.5c-2.4,2.4-2.8,0.3-2.8-0.8c0-1.6,0-4.9,0-6.6c-0.1-5.2,3.8-6.8,3.8-6.8l2.2,2.6l2-5.4l9-5.8c1.4-1,2.3,2.1,0.6,3.4l-7.9,5.1v18.4c0,1.4-0.7,2.7-1.4,3.2c-0.9,0.6-1.9,0.6-1.9-0.8v-7.5"/>
</g>


<!-- lines -->
<g id="lines" class="lines">
               <path d="
      M938.6,36.6l77.8,48.9
      M1256.7,236.8l-87.9-55.3
      M1146.1,36.5l-39.1,24.6l48.3,30.4L966.3,211.1l-53-33.1
      M416,181.9l-92.8,57.5
      M432.8,33.2l87.9,55.3
      M192.3,178.4l67.3,42.4
      M153.9,191.1L80,237.5
      M515.8,231.8l-72.3-44.6
      M676.8,39.1l39.7,25.1L482.6,211.3
      M396.1,157.3l-37.5-23.7l-54.1,33.3L183.9,91.3l39.9-25.1l-44.2-27.9
      M312.4,93.4l51.1-31.7l126.8,78.7l47.9-30
      M1135,176.5l-31,19.5l-56.4-36.1
      M767.6,244.8l-95.4-60.1
      M884.8,160.1l-38.8-24.7l-58.3,36.7l-120-77.1
      M809,92.6l52.7-31.6l119.2,77.1L1025,110
      M596.8,140.2l41.7,26.3
      M1104,196l-34.6,21.8"/>
</g>
</svg>
