<?xml version="1.0" encoding="utf-8"?>
<!-- Generator: Adobe Illustrator 18.0.0, SVG Export Plug-In . SVG Version: 6.00 Build 0)  -->
<!DOCTYPE svg PUBLIC "-//W3C//DTD SVG 1.1//EN" "http://www.w3.org/Graphics/SVG/1.1/DTD/svg11.dtd">
<svg version="1.1" id="Layer_1" xmlns="http://www.w3.org/2000/svg" xmlns:xlink="http://www.w3.org/1999/xlink" x="0px" y="0px"
	 viewBox="0 0 118.5 78.2" enable-background="new 0 0 118.5 78.2" xml:space="preserve">
<g id="White_Base_2_">
	<g>
		<path fill="#BFBFBF" d="M61.6,42.7c0.2-1.2,0.2-2.3,0.2-3.4c0-1.1-0.1-2.2-0.2-3.4c-0.1-0.9,0.2-1.7,0.8-2.4l5.5-5.4l-5.8-10
			l-7.4,2.1c-0.2,0.1-0.5,0.1-0.8,0.1c-0.6,0-1.2-0.2-1.7-0.6c-1.8-1.4-3.8-2.6-5.9-3.4c-0.8-0.3-1.4-1-1.6-1.9L42.9,7H31.3
			l-1.9,7.5c-0.2,0.9-0.8,1.6-1.6,1.9c-2.1,0.9-4.1,2-5.9,3.4c-0.5,0.4-1.1,0.6-1.7,0.6c-0.3,0-0.5,0-0.8-0.1l-7.4-2.1l-5.8,10
			l5.5,5.4c0.6,0.6,0.9,1.5,0.8,2.4c-0.2,1.2-0.2,2.3-0.2,3.4s0.1,2.2,0.2,3.4c0.1,0.9-0.2,1.7-0.8,2.4l-5.5,5.4l5.8,10l7.4-2.1
			c0.2-0.1,0.5-0.1,0.8-0.1c0.6,0,1.2,0.2,1.7,0.6c1.8,1.4,3.8,2.6,5.9,3.4c0.8,0.3,1.4,1,1.6,1.9l1.9,7.5h11.6l1.9-7.5
			c0.2-0.9,0.8-1.6,1.6-1.9c2.1-0.9,4.1-2,5.9-3.4c0.5-0.4,1.1-0.6,1.7-0.6c0.3,0,0.5,0,0.8,0.1l7.4,2.1l5.8-10l-5.5-5.4
			C61.7,44.5,61.4,43.6,61.6,42.7z M37.5,53.1c-7.6,0-13.8-6.2-13.8-13.8c0-7.6,6.2-13.8,13.8-13.8c7.6,0,13.8,6.2,13.8,13.8
			C51.2,46.9,45.1,53.1,37.5,53.1z"/>
	</g>
</g>
<g id="White_Base_4_">
	<g>
		<path fill="#BFBFBF" d="M112.4,32.8l-5.6-1.1c-0.2,0-0.4-0.1-0.5-0.2c-0.4-0.2-0.7-0.5-0.9-0.9c-0.7-1.5-1.6-2.9-2.7-4.2
			c-0.4-0.5-0.6-1.2-0.4-1.8l1.3-5.6l-7.6-3.9l-3.7,4.3c-0.4,0.5-1.1,0.7-1.7,0.7c-1.7-0.1-3.4,0-5,0.3c-0.4,0.1-0.9,0-1.3-0.2
			c-0.2-0.1-0.3-0.2-0.5-0.3L79.4,16l-7.2,4.7l1.9,5.4c0.2,0.6,0.1,1.3-0.3,1.8c-0.5,0.7-0.9,1.4-1.3,2.2s-0.7,1.5-1,2.3
			c-0.2,0.6-0.7,1.1-1.3,1.3l-5.5,1.7l0.4,8.6l5.6,1.1c0.2,0,0.4,0.1,0.5,0.2c0.4,0.2,0.7,0.5,0.9,0.9c0.7,1.5,1.6,2.9,2.7,4.2
			c0.4,0.5,0.6,1.2,0.4,1.8l-1.3,5.6l7.6,3.9l3.7-4.3c0.4-0.5,1.1-0.7,1.7-0.7c1.7,0.1,3.4,0,5-0.3c0.4-0.1,0.9,0,1.3,0.2
			c0.2,0.1,0.3,0.2,0.5,0.3l4.2,3.9l7.2-4.7l-1.9-5.4c-0.2-0.6-0.1-1.3,0.3-1.8c0.5-0.7,0.9-1.4,1.3-2.2c0.4-0.7,0.7-1.5,1-2.3
			c0.2-0.6,0.7-1.1,1.3-1.3l5.5-1.7L112.4,32.8z M98.1,43.1c-2.5,5-8.7,7-13.7,4.5c-5-2.5-7-8.7-4.5-13.7c2.5-5,8.7-7,13.7-4.5
			C98.6,32,100.6,38.1,98.1,43.1z"/>
	</g>
</g>
<g>
	<path fill="#FFFFFF" d="M37.5,56.8c-9.8,0-17.7-7.9-17.7-17.7s7.9-17.7,17.7-17.7s17.7,7.9,17.7,17.7S47.2,56.8,37.5,56.8z
		 M37.5,22.9c-8.9,0-16.2,7.3-16.2,16.2s7.3,16.2,16.2,16.2s16.2-7.3,16.2-16.2S46.4,22.9,37.5,22.9z"/>
</g>
<path fill="#FFFFFF" d="M88.8,24.4c-7.7,0-14,6.3-14,14s6.3,14,14,14s14-6.3,14-14S96.5,24.4,88.8,24.4z M88.8,50.9
	c-6.9,0-12.5-5.6-12.5-12.5s5.6-12.5,12.5-12.5s12.5,5.6,12.5,12.5S95.7,50.9,88.8,50.9z"/>
</svg>
