<!-- Commercial Support  -->
<svg xmlns="http://www.w3.org/2000/svg" viewBox="0 0 144 143.8" enable-background="new 0 0 144 143.8">
               <path d="M35.3 84.7c-1.5-4.1-2.3-8.5-2.3-13.1 0-3.8.5-7.4 1.6-10.9M83.5 108.7c-3.7 1.1-7.5 1.8-11.6 1.8-3.8 0-7.6-.6-11.1-1.6M109.2 60.3c1.1 3.6 1.6 7.3 1.6 11.2 0 4.7-.8 9.1-2.3 13.3M59 34.9c4-1.4 8.4-2.2 12.9-2.2 4.4 0 9.1.9 13 2.2M103.7 15.8c-9.4-5.4-20.2-8.4-31.8-8.4-11.6 0-22.4 3.1-31.8 8.4M127.6 103.4c5.4-9.4 8.5-20.3 8.5-31.9 0-11.1-2.8-21.5-7.7-30.5M41.4 128c9.1 4.9 19.5 7.7 30.5 7.7s21.4-2.8 30.4-7.7M15.3 41.4c-4.8 9-7.5 19.3-7.5 30.2 0 11.7 3.1 22.7 8.6 32.1"/>
               <path d="M105.6 57.9c-3.1-8.5-10-15.5-18.4-19.4-2-.9-2.5-3.5-.9-5.1l16.5-16.4c1.8-1.8 4.5-2 6.6-.5 7.1 5 13.8 11.1 18.8 19.3 1.2 2 1 4.6-.7 6.3l-16.8 16.9c-1.6 1.7-4.3 1-5.1-1.1zM59.4 110.4l-16.8 16.8c-1.7 1.7-4.4 2-6.4.7-7.8-5-14.9-12.1-19.5-18.8-1.4-2-1.1-4.8.6-6.5l16.6-16.6c1.6-1.6 4.1-1 5.1.9 3.9 8.4 10.9 15 19.5 18.5 2 .7 2.5 3.4.9 5zM15.6 36c4.2-6.7 11.4-14.3 18.9-19.5 2-1.4 4.8-1.2 6.6.6l16.5 16.5c1.5 1.5 1 4.1-.9 5.1-8.4 3.9-15 10.9-18.5 19.5-.8 2.1-3.5 2.6-5.1 1l-16.8-16.9c-1.7-1.7-2-4.3-.7-6.3zM85.4 105.3c5.5-2.2 14.5-7.4 19.5-18.4.9-2 3.5-2.5 5-1l16.6 16.6c1.7 1.7 2 4.4.7 6.4-4.7 7.2-11.6 13.6-19.4 19-2 1.4-4.8 1.1-6.5-.6l-16.9-16.9c-1.6-1.6-1-4.3 1-5.1z"/>
</svg>
