<?xml version="1.0" encoding="utf-8"?>
<!-- Generator: Adobe Illustrator 18.0.0, SVG Export Plug-In . SVG Version: 6.00 Build 0)  -->
<!DOCTYPE svg PUBLIC "-//W3C//DTD SVG 1.1//EN" "http://www.w3.org/Graphics/SVG/1.1/DTD/svg11.dtd">
<svg version="1.1" id="Layer_1" xmlns="http://www.w3.org/2000/svg" xmlns:xlink="http://www.w3.org/1999/xlink" x="0px" y="0px"
	 viewBox="0 0 63 67" enable-background="new 0 0 63 67" xml:space="preserve">
<path id="Shape_12_" fill="#C0BEBE" d="M33.4,2c0,0,6.4,10.4,5.4,20.5c-1.1,10.3-8,14.9-11.5,22.7c-3.4,7.9-1.4,16,1.4,18.2
	c-3.8-2.6-13.6-7.6-12.9-20.9c0.4-4,2.8-11.5,8.9-18.5C30.9,16.8,34.8,14,33.4,2L33.4,2z"/>
<path id="Shape_11_" fill="#C0BEBE" d="M19.5,58.2c0,0-9.1-6.4-9.5-16.2c-0.4-4.3,2-10.8,7.6-15.8c6.4-5.7,8.2-6.9,9.5-8.4
	c-3.7,4.4-11.8,13-13.1,20.3C12.8,45.6,15.4,53.2,19.5,58.2L19.5,58.2z"/>
<path id="Shape_10_" fill="#C0BEBE" d="M30.9,64c0,0-5.7-8.4-1.5-17.4c1.4-2.7,6.4-8.7,8.8-14.1s2.8-8.8,2.7-12.6
	c3.7,5.1,9.6,20.3,2.8,32.1c2.2-1.3,5.2-4.3,6.4-7.5C49.6,51.1,46.7,63.4,30.9,64L30.9,64z"/>
<path id="Shape_3_" fill="#FFFFFF" d="M31.5,62.7c0,0-3.7-6.5,0.5-13c3.3-5.2,6.8-6.3,8.8-12.1c0.4,5.9,0.1,13.8-5,20.4
	c2.2-0.4,3.5-1,5.2-2.3C39.8,58.5,37.5,61.7,31.5,62.7L31.5,62.7z"/>
<path id="Shape_2_" fill="#FFFFFF" d="M25.5,59.7c0,0-10.4-11.7-3.1-23.7c4-7,9-8.7,11.5-15.6c0.6-1.7,1.4-2.9,1.4-1.4
	c0,6.2-0.6,10.7-6.9,18.8C23.3,44.5,22.2,53.4,25.5,59.7L25.5,59.7z"/>
<path id="Shape_1_" fill="#9B9B9B" d="M38.3,3.1c0,0,2.9,8.4-5.7,20.5c-6.3,8.8-18.7,21.8-5.6,37.8c-5.4-5.6-10.5-15.2-4.8-26.6
	C27.6,24.4,40.3,17.7,38.3,3.1L38.3,3.1z"/>
</svg>
