<!-- FHIR JS -->
<svg xmlns="http://www.w3.org/2000/svg" viewBox="0 0 144 143.8" enable-background="new 0 0 144 143.8"><g stroke="#000" fill="none"><path d="M93 101.1l4.3-5.1c2.8 2.2 5.8 3.3 9 3.3 2.1 0 3.2-.7 3.2-1.9v-.1c0-1.2-.9-1.8-4.7-2.7-5.9-1.4-10.5-3-10.5-8.8v-.1c0-5.2 4.1-8.9 10.8-8.9 4.7 0 8.4 1.3 11.5 3.7l-3.9 5.5c-2.6-1.8-5.3-2.8-7.8-2.8-1.9 0-2.8.8-2.8 1.8v.1c0 1.3 1 1.8 4.8 2.7 6.4 1.4 10.4 3.5 10.4 8.7v.1c0 5.7-4.5 9.1-11.3 9.1-4.9 0-9.6-1.5-13-4.6zM70.3 101l5-4.7c1.4 1.6 2.6 2.6 4.3 2.6 2 0 3.2-1.3 3.2-3.9v-17.7h7.7v17.7c0 3.5-.9 6-2.8 7.9-1.8 1.8-4.5 2.8-7.7 2.8-4.7 0-7.7-2-9.7-4.7zM95.7 45h13.2c4.3 0 7.2 1.1 9.1 3 1.6 1.6 2.5 3.7 2.5 6.5v.1c0 4.3-2.3 7.1-5.7 8.6l6.7 9.7h-8.9l-5.6-8.4h-3.4v8.4h-7.7v-27.9zm12.9 13.4c2.6 0 4.1-1.3 4.1-3.3v-.1c0-2.2-1.6-3.3-4.2-3.3h-5.1v6.7h5.2zM82.9 45h7.8v27.9h-7.8v-27.9zM52.4 45h7.7v10.4h9.9v-10.4h7.7v27.9h-7.7v-10.6h-9.9v10.6h-7.7v-27.9zM26.5 45h22.3v6.8h-14.5v4.7h13.2v6.4h-13.2v10h-7.7v-27.9z"/></g><path d="M117.1 132.4h-88.2c-8.5 0-15.4-6.9-15.4-15.4v-88.3c0-8.5 6.9-15.4 15.4-15.4h88.3c8.5 0 15.4 6.9 15.4 15.4v88.3c-.1 8.5-7 15.4-15.5 15.4z" fill="none"/></svg>
