<!-- FHIR Shema -->
<svg xmlns="http://www.w3.org/2000/svg" viewBox="0 0 144 143.8" enable-background="new 0 0 144 143.8"><g><path d="M69.5 111.4c-19.3-4.3-28-26.8-15.5-41.2 3.9-4.5 10-8.5 14.1-12.8 8.1-8.3 8.9-17-2.1-25.5 18.6 2.8 22 19.7 16.5 29.8-3.2 5.9-8.2 10.8-12.8 15.8-9 11.3-11.3 21.3-.2 33.9zM88.3 59c.5 5.1-2.2 9.2-6.2 13.5-2.5 2.8-18.9 16.3-12.9 29.9 2.5 5.7 9.8 8.6 15.9 9-3.9-3.8-5.1-6.6-5.3-9.7-.4-7.7 7.4-15.9 10.6-20.4 5.3-7.5 1.4-17.8-2.1-22.3zM11.4 67.9c9.3 0 10.6-5.1 10.6-9.7 0-3.7-.5-7.3-1-11s-1-7.2-1-10.9c0-12.1 7.9-17.2 19-17.2h2.8v7.2h-2.4c-7.7 0-10.4 4.2-10.4 11.3 0 3 .4 6.2.9 9.3.5 3.3.9 6.4.9 10 .1 8.4-3.5 12.6-9.4 14.2v.3c5.9 1.4 9.6 5.9 9.4 14.3 0 3.5-.4 6.8-.9 10-.5 3.3-.9 6.3-.9 9.4 0 7.3 3 11.4 10.4 11.4h2.4v7.2h-2.8c-10.9 0-19-4.7-19-18 0-3.5.5-7.2 1-10.8.5-3.5 1-7.1 1-10.6 0-4.1-1.3-9.7-10.6-9.7v-6.7zM134 74.6c-9.3 0-10.6 5.6-10.6 9.7 0 3.5.5 7.1 1 10.6s1 7.2 1 10.8c0 13.3-8.3 18-19 18h-2.8v-7.2h2.2c7.3-.1 10.5-4.1 10.5-11.4 0-3.1-.5-6.2-.9-9.4-.5-3.1-1-6.4-1-10 0-8.4 3.7-12.9 9.4-14.3v-.3c-5.8-1.6-9.4-5.8-9.4-14.2 0-3.5.5-6.7 1-10 .4-3.1.9-6.3.9-9.3 0-7.1-2.8-11.2-10.4-11.3h-2.4v-7.2h2.6c11.2 0 19.2 5.1 19.2 17.2 0 3.7-.5 7.2-1 10.9s-1 7.3-1 11c0 4.6 1.3 9.7 10.6 9.7v6.7z"/></g></svg>
