<?xml version="1.0" encoding="utf-8"?>
<!-- Generator: Adobe Illustrator 18.0.0, SVG Export Plug-In . SVG Version: 6.00 Build 0)  -->
<!DOCTYPE svg PUBLIC "-//W3C//DTD SVG 1.1//EN" "http://www.w3.org/Graphics/SVG/1.1/DTD/svg11.dtd">
<svg version="1.1" id="Layer_1" xmlns="http://www.w3.org/2000/svg" xmlns:xlink="http://www.w3.org/1999/xlink" x="0px" y="0px"
	 viewBox="0 0 63 67" enable-background="new 0 0 63 67" xml:space="preserve">
<path fill="#C0BEBE" d="M50.6,26.7c-0.2-1.3-0.5-2.5-0.9-3.7c-0.6-1.6-1.3-3.1-2.1-4.6c-0.5-1-1.2-2-1.9-2.9
	c-0.7-0.9-1.4-1.8-2.1-2.7c-0.7-0.8-1.5-1.5-2.2-2.3c0.2,0.9,0.4,1.7,0.6,2.5c0.2,1.2,0.2,2.4-0.3,3.6c-0.2,0.7-0.6,1.3-1.2,1.9
	c-0.5-2.1-1.3-4-2.2-5.9c-0.9-1.8-1.9-3.5-3.2-5c-0.7-0.8-1.5-1.6-2.3-2.4c-0.2-0.2-0.5-0.5-0.8-0.7c-1.2-0.9-2.4-1.7-3.8-2.3h-0.3
	c0,1.2,0.1,2.4,0,3.5c-0.1,1.1-0.3,2.2-0.6,3.3c-0.8,2.8-2.1,5.4-3.7,7.8c-1.1,1.6-2.2,3.2-3.4,4.8c-0.2,0.2-0.4,0.5-0.6,0.7
	c-0.1-2.6-0.5-5-1.9-7.3c0,0.2-0.1,0.3-0.1,0.4c-0.1,0.5-0.1,1-0.2,1.5c-0.4,1.7-1.1,3.2-1.8,4.8c-0.8,1.7-1.7,3.3-2.3,5
	c-0.9,2.4-1.4,4.8-1.1,7.4c0.1,1.3,0.5,2.5,1,3.7c1,2.1,2.5,3.7,4.2,5.1c1.6,1.4,3.4,2.5,5.2,3.6c0.1,0.1,0.2,0.1,0.4,0.2
	c-0.1-0.3-0.2-0.4-0.2-0.6c-0.9-2.1-1.6-4.2-1.4-6.5c0.1-0.9,0.3-1.8,0.6-2.7c0.6-1.5,1.6-2.9,2.4-4.3c0.9-1.5,1.6-3,2.1-4.6
	c0.1-0.2,0.2-0.5,0.2-0.7c0.1-0.2,0.1-0.5,0.2-0.8c1.2,2.1,1.5,4.1,1.2,6.4c0.6-0.8,1.2-1.6,1.7-2.4c1.6-3,2.3-6.3,2-9.8
	c4,3.1,6.6,7,7.8,11.9c1.2,4.8,0.9,9.5-1.3,14.1c0.1,0,0.2-0.1,0.3-0.1c1.5-1,3.1-1.9,4.5-3c1.4-1.1,2.6-2.3,3.7-3.6
	c1.2-1.5,2.2-3.1,2.9-4.9c0.6-1.6,1-3.2,1-4.9C50.8,29,50.8,27.8,50.6,26.7z"/>
<path fill="#C0BEBE" d="M45.8,51.6c-0.7-1.8-1.5-2.4-3.5-2.4c-4.5,0-9,0-13.4,0c-1.2,0-2.3,0.2-2.7,1.6c-0.5,2.1-1,4.3-1.4,6.4
	C24.6,58.3,25,59,26.4,59c7,0,14,0,21,0c1.2-0.1,1-0.7,0.7-1.5C47.4,55.5,46.6,53.6,45.8,51.6z"/>
<path fill="#C0BEBE" d="M45.6,60.9c-4.7,0-15.6,0-19.6,0c-0.4,0-0.4,0.6-0.4,0.8c1.3,3,1.5,3.1,4.9,3.1c3,0,6.1,0,9.1,0
	c1,0,1.5-0.1,2.3-0.6c1.3-0.8,2.6-1.4,3.9-2.4C46.4,61.4,46.6,60.9,45.6,60.9z"/>
<path fill="#C0BEBE" d="M22.5,60.9c-2.4,0-4.4,0-6.7,0c0,1.3,4.4,3.3,5,3.5c1.3,0.5,2.7,0.4,4.3,0.2C24.6,63.3,24.3,60.9,22.5,60.9z
	"/>
<path fill="#C0BEBE" d="M21.2,59.1c0.6,0,1.4,0,1.8-1.2c0.6-2,1.2-4.4,1.6-6.3c0.4-2.3,0.1-2.3-1.1-2.3c-0.7,0-1.5,0-2.3,0
	c-1.8,0-3.6,0-4.2,0.9c-1.6,2.5-4.5,7.7-1.9,8.6C16.2,59.2,20.7,59.1,21.2,59.1z"/>
</svg>
