<!-- Mapper -->
<svg xmlns="http://www.w3.org/2000/svg" viewBox="0 0 144 143.8" enable-background="new 0 0 144 143.8"><path d="M118.8 66.9c2 1.5 4.1 3.6 4.1 6.3M59 28.2l3.7-4.7M58.7 118.2l3.4 4.3M48.6 70v5.9" fill="none"/><path d="M33.2 72.9c0 4.6-3.8 8.3-8.4 8.3-4.6 0-8.3-3.8-8.3-8.4 0-4.6 3.8-8.3 8.4-8.3 4.6 0 8.3 3.8 8.3 8.4zM68.6 120.6c0 4.6-3.8 8.3-8.4 8.3s-8.3-3.8-8.3-8.4c0-4.6 3.8-8.3 8.4-8.3 4.6.1 8.3 3.8 8.3 8.4zM69.1 25.5c0 4.6-3.8 8.3-8.4 8.3-4.6 0-8.3-3.8-8.3-8.4 0-4.6 3.8-8.3 8.4-8.3s8.3 3.8 8.3 8.4zM66.2 19.3s56.8 45.4 57.2 45.7c6.7 5.6 4.4 12.4-.7 16.1l-57 46M55.8 32.3l40.6 32.6h-47.7c-4.6 0-8.3 3.4-8.4 8 0 4.6 3.7 8.6 8.3 8.6h48l-41.3 32.5" fill="none"/></svg>
